<svg xmlns="http://www.w3.org/2000/svg" xmlns:xlink="http://www.w3.org/1999/xlink" width="300" zoomAndPan="magnify" viewBox="0 0 224.87999 225" height="300" preserveAspectRatio="xMidYMid meet" version="1.0"><defs><clipPath id="id1"><path d="M 41.59375 70 L 136 70 L 136 189 L 41.59375 189 Z M 41.59375 70 " clip-rule="nonzero"/></clipPath><clipPath id="id2"><path d="M 41.59375 70 L 58 70 L 58 189 L 41.59375 189 Z M 41.59375 70 " clip-rule="nonzero"/></clipPath><clipPath id="id3"><path d="M 133 177 L 156 177 L 156 189.207031 L 133 189.207031 Z M 133 177 " clip-rule="nonzero"/></clipPath></defs><path fill="#141623" d="M 143.609375 42.71875 C 143.835938 42.390625 143.855469 41.957031 143.652344 41.609375 C 143.078125 40.644531 142.183594 38.574219 143.683594 36.648438 C 145.714844 34.042969 147.109375 36.074219 152.054688 35.558594 C 157 35.046875 159.175781 37.304688 159.371094 41.167969 C 159.453125 42.902344 159.296875 48.121094 161.339844 52.132812 C 163.9375 57.257812 159.410156 59.113281 159.410156 59.113281 C 159.410156 59.113281 160.210938 58.203125 160.171875 57.1875 C 160.171875 57.1875 159.535156 58.746094 157.84375 58.839844 C 157.84375 58.839844 158.4375 57.636719 158.476562 56.992188 C 158.476562 56.992188 154.160156 60.46875 150.320312 59.113281 C 146.472656 57.761719 144.574219 57.105469 142.863281 57.605469 C 141.148438 58.109375 141.148438 58.109375 141.148438 58.109375 C 141.148438 58.109375 141.609375 56.59375 142.667969 56.121094 C 142.667969 56.121094 140.378906 57.011719 139.875 57.730469 C 139.875 57.730469 139.753906 54.683594 140.769531 53.332031 C 141.785156 51.976562 141.734375 49.097656 141.816406 46.984375 C 141.875 45.484375 142.996094 43.628906 143.609375 42.71875 Z M 143.609375 42.71875 " fill-opacity="1" fill-rule="nonzero"/><path fill="#fb8875" d="M 108.273438 69.882812 C 108.273438 69.882812 125.582031 68.488281 128.792969 68.230469 C 132.007812 67.976562 141.066406 59.976562 146.238281 58.519531 C 151.410156 57.0625 154.199219 59.660156 153.058594 64.199219 C 151.921875 68.734375 135.914062 76.628906 132.703125 77.234375 C 129.503906 77.839844 108.273438 75.65625 108.273438 75.65625 Z M 108.273438 69.882812 " fill-opacity="1" fill-rule="nonzero"/><path fill="#f1dbce" d="M 146.1875 58.398438 C 142.617188 59.390625 138.492188 62.242188 133.1875 66.191406 C 132.40625 69.03125 132.40625 73.175781 135.75 76.179688 C 141.980469 74.210938 152.238281 67.472656 153.058594 64.210938 C 154.210938 59.667969 151.367188 56.941406 146.1875 58.398438 Z M 146.1875 58.398438 " fill-opacity="1" fill-rule="nonzero"/><path fill="#f1dbce" d="M 148.09375 56.027344 C 148.09375 56.027344 146.832031 56.449219 146.421875 57.1875 C 146.011719 57.914062 145.40625 59.566406 145.40625 59.566406 L 147.234375 59.988281 L 149.304688 57.0625 Z M 148.09375 56.027344 " fill-opacity="1" fill-rule="nonzero"/><g clip-path="url(#id1)"><path fill="#91d4dd" d="M 135.011719 183.144531 L 128.355469 75.113281 C 128.1875 72.496094 126.023438 70.457031 123.398438 70.457031 L 47.285156 70.457031 C 46.167969 70.457031 45.089844 70.835938 44.21875 71.523438 L 43.570312 72.027344 C 42.300781 73.03125 41.59375 74.597656 41.695312 76.21875 L 48.324219 183.75 C 48.488281 186.367188 50.652344 188.40625 53.277344 188.40625 L 130.066406 188.40625 C 132.929688 188.417969 135.1875 186.007812 135.011719 183.144531 Z M 135.011719 183.144531 " fill-opacity="1" fill-rule="nonzero"/></g><path fill="#141623" d="M 124.566406 91.480469 L 123.109375 92.933594 L 52.230469 75.664062 L 53.6875 74.210938 L 123.5 74.210938 Z M 124.566406 91.480469 " fill-opacity="0.298" fill-rule="nonzero"/><g clip-path="url(#id2)"><path fill="#141623" d="M 52.550781 183.761719 L 45.890625 75.71875 C 45.714844 72.867188 47.984375 70.457031 50.847656 70.457031 L 47.285156 70.457031 C 46.167969 70.457031 45.089844 70.835938 44.21875 71.523438 L 43.570312 72.027344 C 42.300781 73.03125 41.59375 74.597656 41.695312 76.21875 L 48.324219 183.75 C 48.488281 186.367188 50.652344 188.40625 53.277344 188.40625 L 57.503906 188.40625 C 54.878906 188.417969 52.714844 186.375 52.550781 183.761719 Z M 52.550781 183.761719 " fill-opacity="0.298" fill-rule="nonzero"/></g><path fill="#f1dbce" d="M 123.109375 92.933594 L 53.300781 92.933594 L 52.230469 75.664062 L 122.042969 75.664062 Z M 123.109375 92.933594 " fill-opacity="1" fill-rule="nonzero"/><path fill="#141623" d="M 68.585938 82.609375 L 68.585938 81.601562 C 68.585938 80.875 68.371094 80.671875 67.664062 80.671875 L 65.613281 80.671875 C 64.851562 80.671875 64.6875 80.78125 64.6875 81.53125 L 64.6875 84.773438 C 64.84375 84.699219 65.007812 84.660156 65.160156 84.660156 L 68.105469 84.660156 C 68.257812 84.660156 68.421875 84.699219 68.578125 84.773438 C 68.824219 84.875 68.996094 85.050781 69.089844 85.285156 C 69.160156 85.4375 69.203125 85.601562 69.203125 85.757812 L 69.203125 88.957031 C 69.203125 89.128906 69.160156 89.285156 69.089844 89.449219 C 69.046875 89.550781 68.988281 89.652344 68.882812 89.746094 C 68.78125 89.847656 68.667969 89.921875 68.566406 89.960938 C 68.414062 90.03125 68.25 90.074219 68.09375 90.074219 L 65.148438 90.074219 C 64.996094 90.074219 64.832031 90.03125 64.679688 89.960938 C 64.429688 89.828125 64.257812 89.664062 64.164062 89.449219 C 64.09375 89.292969 64.050781 89.128906 64.050781 88.957031 L 64.050781 81.152344 C 64.050781 80.976562 64.09375 80.824219 64.164062 80.660156 C 64.226562 80.546875 64.296875 80.445312 64.378906 80.363281 C 64.460938 80.28125 64.566406 80.207031 64.679688 80.148438 C 64.832031 80.074219 64.996094 80.035156 65.148438 80.035156 L 68.09375 80.035156 C 68.25 80.035156 68.414062 80.074219 68.566406 80.148438 C 68.8125 80.28125 68.988281 80.445312 69.078125 80.660156 C 69.152344 80.8125 69.191406 80.976562 69.191406 81.152344 L 69.191406 82.597656 L 68.585938 82.597656 Z M 65.613281 85.285156 C 64.851562 85.285156 64.6875 85.398438 64.6875 86.136719 L 64.6875 88.515625 C 64.6875 89.242188 64.902344 89.449219 65.613281 89.449219 L 67.664062 89.449219 C 68.421875 89.449219 68.585938 89.335938 68.585938 88.585938 L 68.585938 86.207031 C 68.585938 85.480469 68.371094 85.285156 67.664062 85.285156 Z M 65.613281 85.285156 " fill-opacity="1" fill-rule="nonzero"/><path fill="#141623" d="M 72.507812 87.582031 C 72.332031 87.734375 72.21875 87.941406 72.21875 88.1875 L 72.21875 89.449219 L 76.753906 89.449219 L 76.753906 90.085938 L 71.582031 90.085938 L 71.582031 87.859375 C 71.582031 87.757812 71.59375 87.675781 71.644531 87.570312 C 71.675781 87.5 71.714844 87.4375 71.757812 87.386719 L 71.871094 87.273438 C 71.871094 87.265625 72.875 86.382812 73.871094 85.46875 L 75.839844 83.675781 C 76.027344 83.5 76.128906 83.347656 76.128906 83.058594 L 76.128906 81.542969 C 76.128906 80.792969 75.984375 80.679688 75.195312 80.679688 L 73.152344 80.679688 C 72.425781 80.679688 72.21875 80.886719 72.21875 81.613281 L 72.21875 82.371094 L 71.582031 82.371094 L 71.582031 81.164062 C 71.582031 80.988281 71.625 80.835938 71.695312 80.671875 C 71.796875 80.453125 71.972656 80.28125 72.207031 80.15625 C 72.363281 80.085938 72.527344 80.042969 72.703125 80.042969 L 75.625 80.042969 C 75.800781 80.042969 75.953125 80.085938 76.117188 80.15625 C 76.230469 80.21875 76.332031 80.289062 76.414062 80.371094 C 76.496094 80.453125 76.570312 80.558594 76.632812 80.671875 C 76.703125 80.824219 76.742188 80.988281 76.742188 81.164062 L 76.742188 83.160156 C 76.742188 83.550781 76.683594 83.746094 76.457031 83.992188 Z M 72.507812 87.582031 " fill-opacity="1" fill-rule="nonzero"/><path fill="#141623" d="M 84.273438 88.988281 C 84.273438 89.140625 84.234375 89.304688 84.164062 89.480469 C 84.121094 89.582031 84.050781 89.683594 83.945312 89.777344 C 83.863281 89.859375 83.761719 89.929688 83.648438 89.992188 L 83.648438 89.960938 C 83.648438 89.960938 83.640625 89.972656 83.585938 89.992188 C 83.578125 89.992188 83.578125 90.003906 83.527344 90.003906 C 83.394531 90.042969 83.28125 90.074219 83.15625 90.074219 L 80.234375 90.074219 C 80.097656 90.074219 79.984375 90.042969 79.863281 90.003906 C 79.851562 90.003906 79.851562 89.992188 79.800781 89.992188 C 79.800781 89.992188 79.792969 89.980469 79.738281 89.960938 C 79.492188 89.828125 79.320312 89.664062 79.226562 89.449219 C 79.15625 89.316406 79.125 89.152344 79.125 88.957031 L 79.125 86.035156 C 79.125 85.878906 79.164062 85.714844 79.238281 85.542969 C 79.277344 85.429688 79.351562 85.324219 79.441406 85.242188 C 79.453125 85.242188 79.453125 85.242188 79.453125 85.234375 L 79.441406 85.234375 C 79.359375 85.132812 79.289062 85.027344 79.226562 84.9375 C 79.15625 84.78125 79.125 84.640625 79.125 84.503906 L 79.125 81.164062 C 79.125 80.976562 79.15625 80.804688 79.226562 80.671875 C 79.289062 80.558594 79.359375 80.453125 79.441406 80.371094 C 79.546875 80.269531 79.648438 80.21875 79.738281 80.15625 C 79.78125 80.148438 79.800781 80.125 79.800781 80.125 C 79.84375 80.125 79.84375 80.117188 79.863281 80.117188 C 79.996094 80.074219 80.109375 80.042969 80.234375 80.042969 L 83.15625 80.042969 C 83.289062 80.042969 83.402344 80.074219 83.527344 80.117188 C 83.566406 80.117188 83.566406 80.125 83.585938 80.125 C 83.628906 80.136719 83.648438 80.15625 83.648438 80.15625 C 83.894531 80.289062 84.070312 80.453125 84.164062 80.671875 C 84.234375 80.824219 84.273438 80.988281 84.273438 81.164062 L 84.273438 84.503906 C 84.265625 84.660156 84.234375 84.804688 84.164062 84.9375 C 84.101562 85.039062 84.027344 85.140625 83.945312 85.234375 L 83.9375 85.234375 L 83.945312 85.242188 C 84.050781 85.347656 84.101562 85.449219 84.164062 85.542969 C 84.234375 85.714844 84.273438 85.871094 84.273438 86.035156 Z M 80.601562 80.671875 C 79.882812 80.671875 79.738281 80.84375 79.738281 81.53125 L 79.738281 84.003906 C 79.738281 84.066406 79.738281 84.105469 79.75 84.117188 L 79.75 84.15625 C 79.761719 84.628906 79.925781 84.84375 80.324219 84.90625 C 80.398438 84.914062 80.46875 84.914062 80.570312 84.914062 C 80.601562 84.925781 80.632812 84.925781 80.671875 84.925781 L 82.714844 84.925781 C 82.757812 84.925781 82.796875 84.925781 82.816406 84.914062 C 82.953125 84.914062 83.042969 84.914062 83.144531 84.90625 C 83.535156 84.84375 83.640625 84.660156 83.648438 84.15625 L 83.648438 81.601562 C 83.648438 80.875 83.445312 80.679688 82.796875 80.671875 Z M 83.648438 86.390625 L 83.648438 86.382812 C 83.640625 85.871094 83.476562 85.632812 83.074219 85.582031 L 82.816406 85.550781 L 80.570312 85.550781 L 80.253906 85.582031 C 79.832031 85.644531 79.75 85.828125 79.75 86.382812 L 79.75 88.578125 C 79.761719 89.253906 79.964844 89.4375 80.613281 89.4375 L 82.789062 89.4375 C 83.289062 89.4375 83.496094 89.367188 83.585938 89.078125 C 83.597656 89.078125 83.597656 89.070312 83.597656 89.046875 L 83.597656 89.039062 C 83.628906 88.933594 83.640625 88.8125 83.640625 88.636719 L 83.640625 86.390625 Z M 83.648438 86.390625 " fill-opacity="1" fill-rule="nonzero"/><path fill="#141623" d="M 86.613281 87.511719 L 86.613281 88.515625 C 86.613281 89.242188 86.839844 89.449219 87.546875 89.449219 L 89.589844 89.449219 C 90.378906 89.449219 90.523438 89.335938 90.523438 88.585938 L 90.523438 85.789062 C 90.371094 85.859375 90.207031 85.898438 90.03125 85.898438 L 87.105469 85.898438 C 86.933594 85.898438 86.777344 85.859375 86.613281 85.789062 C 86.367188 85.652344 86.195312 85.488281 86.101562 85.273438 C 86.03125 85.140625 86 84.976562 86 84.78125 L 86 81.152344 C 86 80.96875 86.03125 80.792969 86.101562 80.660156 C 86.164062 80.546875 86.234375 80.445312 86.316406 80.363281 C 86.398438 80.28125 86.5 80.207031 86.613281 80.148438 C 86.769531 80.074219 86.933594 80.035156 87.105469 80.035156 L 90.03125 80.035156 C 90.207031 80.035156 90.359375 80.074219 90.523438 80.148438 C 90.75 80.261719 90.921875 80.433594 91.035156 80.660156 C 91.109375 80.8125 91.148438 80.976562 91.148438 81.152344 L 91.148438 88.957031 C 91.148438 89.128906 91.109375 89.285156 91.035156 89.449219 C 90.976562 89.5625 90.902344 89.664062 90.820312 89.746094 C 90.738281 89.828125 90.636719 89.898438 90.523438 89.960938 C 90.371094 90.03125 90.207031 90.074219 90.03125 90.074219 L 87.105469 90.074219 C 86.933594 90.074219 86.777344 90.03125 86.613281 89.960938 C 86.367188 89.828125 86.195312 89.664062 86.101562 89.449219 C 86.03125 89.316406 86 89.152344 86 88.957031 L 86 87.511719 Z M 89.589844 85.273438 C 90.378906 85.273438 90.523438 85.160156 90.523438 84.414062 L 90.523438 81.59375 C 90.523438 80.863281 90.320312 80.660156 89.589844 80.660156 L 87.546875 80.660156 C 86.757812 80.660156 86.613281 80.773438 86.613281 81.519531 L 86.613281 84.332031 C 86.613281 85.058594 86.839844 85.265625 87.546875 85.265625 L 89.589844 85.265625 Z M 89.589844 85.273438 " fill-opacity="1" fill-rule="nonzero"/><path fill="#141623" d="M 98.875 85.859375 L 98.875 89.121094 C 98.875 89.160156 98.875 89.179688 98.867188 89.191406 L 98.867188 89.222656 C 98.855469 89.261719 98.855469 89.285156 98.835938 89.292969 C 98.835938 89.335938 98.824219 89.355469 98.824219 89.367188 L 98.785156 89.449219 C 98.679688 89.695312 98.507812 89.867188 98.269531 89.960938 C 98.269531 89.960938 98.269531 89.960938 98.261719 89.972656 C 98.25 89.972656 98.230469 89.980469 98.21875 89.980469 C 98.21875 89.980469 98.207031 89.992188 98.15625 90.011719 C 98.042969 90.054688 97.929688 90.074219 97.796875 90.074219 L 94.875 90.074219 C 94.742188 90.074219 94.617188 90.0625 94.503906 90.011719 L 94.441406 89.980469 C 94.402344 89.972656 94.382812 89.949219 94.382812 89.949219 L 94.382812 89.980469 C 94.269531 89.921875 94.167969 89.847656 94.085938 89.765625 C 94 89.683594 93.929688 89.582031 93.867188 89.46875 C 93.867188 89.457031 93.859375 89.457031 93.859375 89.4375 C 93.847656 89.398438 93.816406 89.335938 93.796875 89.261719 C 93.765625 89.179688 93.753906 89.078125 93.753906 88.976562 L 93.753906 87.511719 L 94.390625 87.511719 L 94.390625 88.617188 C 94.390625 88.730469 94.390625 88.824219 94.402344 88.863281 C 94.472656 89.304688 94.730469 89.4375 95.304688 89.4375 L 97.5 89.4375 C 97.972656 89.398438 98.1875 89.261719 98.261719 88.851562 L 98.261719 86.300781 C 98.261719 85.652344 98.085938 85.429688 97.550781 85.378906 L 95.5625 85.378906 L 95.5625 85.367188 L 94.710938 85.367188 C 94.605469 85.367188 94.554688 85.335938 94.484375 85.324219 C 94.441406 85.316406 94.421875 85.296875 94.421875 85.296875 C 94.414062 85.296875 94.382812 85.285156 94.359375 85.265625 C 94.25 85.222656 94.144531 85.152344 94.074219 85.058594 L 94.0625 85.050781 C 93.980469 84.96875 93.910156 84.863281 93.847656 84.75 C 93.835938 84.722656 93.808594 84.667969 93.785156 84.597656 C 93.777344 84.585938 93.777344 84.566406 93.777344 84.558594 C 93.765625 84.546875 93.765625 84.527344 93.765625 84.515625 C 93.765625 84.476562 93.753906 84.484375 93.753906 84.445312 L 93.753906 84.363281 C 93.746094 84.363281 93.746094 84.363281 93.746094 84.351562 L 93.746094 81.109375 C 93.753906 80.957031 93.785156 80.8125 93.859375 80.679688 C 93.917969 80.566406 93.992188 80.464844 94.074219 80.382812 C 94.15625 80.300781 94.257812 80.230469 94.371094 80.167969 C 94.472656 80.125 94.546875 80.105469 94.585938 80.097656 C 94.667969 80.066406 94.761719 80.054688 94.863281 80.054688 L 98.238281 80.054688 L 98.238281 80.710938 L 95.234375 80.710938 C 95.128906 80.710938 95.078125 80.710938 94.976562 80.722656 C 94.535156 80.792969 94.402344 81.007812 94.390625 81.574219 L 94.390625 83.992188 C 94.390625 84.148438 94.402344 84.238281 94.421875 84.339844 C 94.484375 84.566406 94.628906 84.699219 94.863281 84.742188 L 94.894531 84.742188 C 94.9375 84.742188 94.9375 84.75 94.976562 84.75 L 95.078125 84.75 C 95.109375 84.761719 95.152344 84.761719 95.222656 84.761719 L 97.796875 84.761719 C 97.953125 84.761719 98.117188 84.804688 98.269531 84.875 C 98.371094 84.914062 98.476562 84.976562 98.566406 85.078125 C 98.671875 85.183594 98.742188 85.285156 98.785156 85.378906 C 98.835938 85.550781 98.875 85.707031 98.875 85.859375 Z M 98.875 85.859375 " fill-opacity="1" fill-rule="nonzero"/><path fill="#141623" d="M 102.167969 87.582031 C 101.996094 87.734375 101.882812 87.941406 101.882812 88.1875 L 101.882812 89.449219 L 106.417969 89.449219 L 106.417969 90.085938 L 101.246094 90.085938 L 101.246094 87.859375 C 101.246094 87.757812 101.257812 87.675781 101.308594 87.570312 C 101.339844 87.5 101.378906 87.4375 101.421875 87.386719 L 101.449219 87.355469 L 101.53125 87.273438 C 101.53125 87.265625 102.539062 86.382812 103.535156 85.46875 L 105.503906 83.675781 C 105.6875 83.5 105.792969 83.347656 105.792969 83.058594 L 105.792969 81.542969 C 105.792969 80.792969 105.648438 80.679688 104.855469 80.679688 L 102.816406 80.679688 C 102.085938 80.679688 101.882812 80.886719 101.882812 81.613281 L 101.882812 82.371094 L 101.246094 82.371094 L 101.246094 81.164062 C 101.246094 80.988281 101.285156 80.835938 101.359375 80.671875 C 101.460938 80.453125 101.636719 80.28125 101.871094 80.15625 C 102.027344 80.085938 102.191406 80.042969 102.363281 80.042969 L 105.296875 80.042969 C 105.472656 80.042969 105.625 80.085938 105.792969 80.15625 C 105.902344 80.21875 106.007812 80.289062 106.089844 80.371094 C 106.171875 80.453125 106.242188 80.558594 106.304688 80.671875 C 106.375 80.824219 106.417969 80.988281 106.417969 81.164062 L 106.417969 83.160156 C 106.417969 83.550781 106.355469 83.746094 106.128906 83.992188 Z M 102.167969 87.582031 " fill-opacity="1" fill-rule="nonzero"/><path fill="#141623" d="M 113.925781 85.859375 L 113.925781 89.121094 C 113.925781 89.160156 113.925781 89.179688 113.917969 89.191406 L 113.917969 89.222656 C 113.90625 89.261719 113.90625 89.285156 113.886719 89.292969 C 113.886719 89.335938 113.875 89.355469 113.875 89.367188 L 113.835938 89.449219 C 113.734375 89.695312 113.558594 89.867188 113.320312 89.960938 C 113.320312 89.960938 113.320312 89.960938 113.3125 89.972656 C 113.300781 89.972656 113.28125 89.980469 113.269531 89.980469 C 113.269531 89.980469 113.261719 89.992188 113.210938 90.011719 C 113.097656 90.054688 112.984375 90.074219 112.851562 90.074219 L 109.925781 90.074219 C 109.792969 90.074219 109.667969 90.0625 109.554688 90.011719 L 109.496094 89.980469 C 109.453125 89.972656 109.433594 89.949219 109.433594 89.949219 L 109.433594 89.980469 C 109.320312 89.921875 109.21875 89.847656 109.136719 89.765625 C 109.054688 89.683594 108.980469 89.582031 108.921875 89.46875 C 108.921875 89.457031 108.910156 89.457031 108.910156 89.4375 C 108.898438 89.398438 108.871094 89.335938 108.847656 89.261719 C 108.816406 89.179688 108.808594 89.078125 108.808594 88.976562 L 108.808594 87.511719 L 109.445312 87.511719 L 109.445312 88.617188 C 109.445312 88.730469 109.445312 88.824219 109.453125 88.863281 C 109.527344 89.304688 109.78125 89.4375 110.355469 89.4375 L 112.550781 89.4375 C 113.023438 89.398438 113.238281 89.261719 113.3125 88.851562 L 113.3125 86.300781 C 113.3125 85.652344 113.136719 85.429688 112.605469 85.378906 L 110.613281 85.378906 L 110.613281 85.367188 L 109.761719 85.367188 C 109.660156 85.367188 109.609375 85.335938 109.535156 85.324219 C 109.496094 85.316406 109.472656 85.296875 109.472656 85.296875 C 109.464844 85.296875 109.433594 85.285156 109.414062 85.265625 C 109.300781 85.222656 109.199219 85.152344 109.125 85.058594 L 109.117188 85.050781 C 109.035156 84.96875 108.960938 84.863281 108.898438 84.75 C 108.890625 84.722656 108.859375 84.667969 108.839844 84.597656 C 108.828125 84.585938 108.828125 84.566406 108.828125 84.558594 C 108.816406 84.546875 108.816406 84.527344 108.816406 84.515625 C 108.816406 84.476562 108.808594 84.484375 108.808594 84.445312 L 108.808594 84.363281 C 108.796875 84.363281 108.796875 84.363281 108.796875 84.351562 L 108.796875 81.109375 C 108.808594 80.957031 108.839844 80.8125 108.910156 80.679688 C 108.972656 80.566406 109.042969 80.464844 109.125 80.382812 C 109.207031 80.300781 109.308594 80.230469 109.421875 80.167969 C 109.527344 80.125 109.597656 80.105469 109.640625 80.097656 C 109.722656 80.066406 109.8125 80.054688 109.914062 80.054688 L 113.292969 80.054688 L 113.292969 80.710938 L 110.285156 80.710938 C 110.183594 80.710938 110.132812 80.710938 110.027344 80.722656 C 109.585938 80.792969 109.453125 81.007812 109.445312 81.574219 L 109.445312 83.992188 C 109.445312 84.148438 109.453125 84.238281 109.472656 84.339844 C 109.535156 84.566406 109.679688 84.699219 109.914062 84.742188 L 109.945312 84.742188 C 109.988281 84.742188 109.988281 84.75 110.027344 84.75 L 110.132812 84.75 C 110.160156 84.761719 110.203125 84.761719 110.273438 84.761719 L 112.851562 84.761719 C 113.003906 84.761719 113.167969 84.804688 113.320312 84.875 C 113.425781 84.914062 113.527344 84.976562 113.621094 85.078125 C 113.722656 85.183594 113.792969 85.285156 113.835938 85.378906 C 113.875 85.550781 113.925781 85.707031 113.925781 85.859375 Z M 113.925781 85.859375 " fill-opacity="1" fill-rule="nonzero"/><path fill="#141623" d="M 70.527344 132.097656 L 56.675781 132.097656 L 55.863281 118.878906 L 69.707031 118.878906 Z M 70.527344 132.097656 " fill-opacity="1" fill-rule="nonzero"/><path fill="#141623" d="M 88.285156 132.097656 L 74.433594 132.097656 L 73.625 118.878906 L 87.464844 118.878906 Z M 88.285156 132.097656 " fill-opacity="1" fill-rule="nonzero"/><path fill="#141623" d="M 106.046875 132.097656 L 92.195312 132.097656 L 91.386719 118.878906 L 105.226562 118.878906 Z M 106.046875 132.097656 " fill-opacity="1" fill-rule="nonzero"/><path fill="#141623" d="M 71.5 147.972656 L 57.660156 147.972656 L 56.839844 134.765625 L 70.691406 134.765625 Z M 71.5 147.972656 " fill-opacity="1" fill-rule="nonzero"/><path fill="#141623" d="M 89.261719 147.972656 L 75.421875 147.972656 L 74.597656 134.765625 L 88.449219 134.765625 Z M 89.261719 147.972656 " fill-opacity="1" fill-rule="nonzero"/><path fill="#141623" d="M 107.023438 147.972656 L 93.179688 147.972656 L 92.371094 134.765625 L 106.210938 134.765625 Z M 107.023438 147.972656 " fill-opacity="1" fill-rule="nonzero"/><path fill="#141623" d="M 72.476562 163.847656 L 58.632812 163.847656 L 57.824219 150.636719 L 71.664062 150.636719 Z M 72.476562 163.847656 " fill-opacity="1" fill-rule="nonzero"/><path fill="#141623" d="M 90.246094 163.847656 L 76.394531 163.847656 L 75.585938 150.636719 L 89.425781 150.636719 Z M 90.246094 163.847656 " fill-opacity="1" fill-rule="nonzero"/><path fill="#141623" d="M 108.007812 163.847656 L 94.15625 163.847656 L 93.34375 150.636719 L 107.1875 150.636719 Z M 108.007812 163.847656 " fill-opacity="1" fill-rule="nonzero"/><path fill="#141623" d="M 73.460938 179.730469 L 59.621094 179.730469 L 58.796875 166.511719 L 72.640625 166.511719 Z M 73.460938 179.730469 " fill-opacity="1" fill-rule="nonzero"/><path fill="#141623" d="M 91.222656 179.730469 L 77.378906 179.730469 L 76.558594 166.511719 L 90.410156 166.511719 Z M 91.222656 179.730469 " fill-opacity="1" fill-rule="nonzero"/><path fill="#141623" d="M 108.980469 179.730469 L 95.140625 179.730469 L 94.320312 166.511719 L 108.171875 166.511719 Z M 108.980469 179.730469 " fill-opacity="1" fill-rule="nonzero"/><path fill="#141623" d="M 57.824219 117.546875 L 55.863281 118.878906 L 70.527344 132.097656 L 72.476562 130.765625 Z M 57.824219 117.546875 " fill-opacity="1" fill-rule="nonzero"/><path fill="#141623" d="M 75.585938 117.546875 L 73.625 118.878906 L 88.285156 132.097656 L 90.246094 130.765625 Z M 75.585938 117.546875 " fill-opacity="1" fill-rule="nonzero"/><path fill="#141623" d="M 93.355469 117.546875 L 91.394531 118.878906 L 106.058594 132.097656 L 108.007812 130.765625 Z M 93.355469 117.546875 " fill-opacity="1" fill-rule="nonzero"/><path fill="#141623" d="M 58.796875 133.429688 L 56.839844 134.765625 L 71.5 147.972656 L 73.460938 146.640625 Z M 58.796875 133.429688 " fill-opacity="1" fill-rule="nonzero"/><path fill="#141623" d="M 76.570312 133.429688 L 74.609375 134.765625 L 89.261719 147.972656 L 91.222656 146.640625 Z M 76.570312 133.429688 " fill-opacity="1" fill-rule="nonzero"/><path fill="#141623" d="M 94.332031 133.429688 L 92.371094 134.765625 L 107.03125 147.972656 L 108.992188 146.640625 Z M 94.332031 133.429688 " fill-opacity="1" fill-rule="nonzero"/><path fill="#141623" d="M 59.785156 149.304688 L 57.824219 150.636719 L 72.476562 163.847656 L 74.433594 162.511719 Z M 59.785156 149.304688 " fill-opacity="1" fill-rule="nonzero"/><path fill="#141623" d="M 77.542969 149.304688 L 75.585938 150.636719 L 90.246094 163.847656 L 92.207031 162.511719 Z M 77.542969 149.304688 " fill-opacity="1" fill-rule="nonzero"/><path fill="#141623" d="M 95.304688 149.304688 L 93.355469 150.636719 L 108.007812 163.847656 L 109.96875 162.511719 Z M 95.304688 149.304688 " fill-opacity="1" fill-rule="nonzero"/><path fill="#141623" d="M 60.757812 165.179688 L 58.796875 166.511719 L 73.460938 179.730469 L 75.421875 178.398438 Z M 60.757812 165.179688 " fill-opacity="1" fill-rule="nonzero"/><path fill="#141623" d="M 78.519531 165.179688 L 76.570312 166.511719 L 91.222656 179.730469 L 93.179688 178.398438 Z M 78.519531 165.179688 " fill-opacity="1" fill-rule="nonzero"/><path fill="#141623" d="M 96.289062 165.179688 L 94.332031 166.511719 L 108.992188 179.730469 L 110.953125 178.398438 Z M 96.289062 165.179688 " fill-opacity="1" fill-rule="nonzero"/><path fill="#fa6f5c" d="M 72.476562 130.765625 L 58.632812 130.765625 L 57.824219 117.546875 L 71.664062 117.546875 Z M 72.476562 130.765625 " fill-opacity="1" fill-rule="nonzero"/><path fill="#fa6f5c" d="M 90.246094 130.765625 L 76.394531 130.765625 L 75.585938 117.546875 L 89.425781 117.546875 Z M 90.246094 130.765625 " fill-opacity="1" fill-rule="nonzero"/><path fill="#fa6f5c" d="M 108.007812 130.765625 L 94.15625 130.765625 L 93.34375 117.546875 L 107.1875 117.546875 Z M 108.007812 130.765625 " fill-opacity="1" fill-rule="nonzero"/><path fill="#fa6f5c" d="M 73.460938 146.640625 L 59.621094 146.640625 L 58.796875 133.429688 L 72.640625 133.429688 Z M 73.460938 146.640625 " fill-opacity="1" fill-rule="nonzero"/><path fill="#fa6f5c" d="M 91.222656 146.640625 L 77.378906 146.640625 L 76.558594 133.429688 L 90.410156 133.429688 Z M 91.222656 146.640625 " fill-opacity="1" fill-rule="nonzero"/><path fill="#fa6f5c" d="M 108.980469 146.640625 L 95.140625 146.640625 L 94.320312 133.429688 L 108.171875 133.429688 Z M 108.980469 146.640625 " fill-opacity="1" fill-rule="nonzero"/><path fill="#fa6f5c" d="M 74.433594 162.511719 L 60.59375 162.511719 L 59.785156 149.304688 L 73.625 149.304688 Z M 74.433594 162.511719 " fill-opacity="1" fill-rule="nonzero"/><path fill="#fa6f5c" d="M 92.195312 162.511719 L 78.355469 162.511719 L 77.542969 149.304688 L 91.386719 149.304688 Z M 92.195312 162.511719 " fill-opacity="1" fill-rule="nonzero"/><path fill="#fa6f5c" d="M 109.957031 162.511719 L 96.117188 162.511719 L 95.304688 149.304688 L 109.144531 149.304688 Z M 109.957031 162.511719 " fill-opacity="1" fill-rule="nonzero"/><path fill="#fa6f5c" d="M 75.421875 178.398438 L 61.570312 178.398438 L 60.757812 165.179688 L 74.597656 165.179688 Z M 75.421875 178.398438 " fill-opacity="1" fill-rule="nonzero"/><path fill="#fa6f5c" d="M 93.179688 178.398438 L 79.328125 178.398438 L 78.519531 165.179688 L 92.359375 165.179688 Z M 93.179688 178.398438 " fill-opacity="1" fill-rule="nonzero"/><path fill="#fa6f5c" d="M 110.941406 178.398438 L 97.101562 178.398438 L 96.28125 165.179688 L 110.132812 165.179688 Z M 110.941406 178.398438 " fill-opacity="1" fill-rule="nonzero"/><path fill="#141623" d="M 68.207031 120.808594 C 68.195312 120.898438 68.207031 121.023438 68.167969 121.125 C 68.074219 121.453125 67.765625 122.714844 67.367188 124.128906 L 67.960938 124.128906 L 67.992188 124.703125 L 67.222656 124.703125 C 66.933594 125.75 66.636719 126.785156 66.410156 127.585938 C 66.277344 128.046875 66.144531 128.5 66.03125 128.929688 L 65.386719 128.929688 L 65.785156 127.566406 C 66.03125 126.753906 66.328125 125.71875 66.636719 124.714844 L 66.207031 124.714844 C 66.113281 124.714844 66.042969 124.714844 65.949219 124.722656 L 65.917969 124.140625 L 66.792969 124.140625 C 67.160156 122.878906 67.457031 121.832031 67.507812 121.660156 C 67.589844 121.390625 67.582031 121.21875 67.621094 121.125 C 67.632812 121.074219 67.632812 121.03125 67.644531 121.003906 C 67.613281 120.355469 67.457031 120.222656 66.761719 120.222656 L 63.960938 120.222656 L 63.929688 119.636719 L 67.140625 119.636719 C 67.285156 119.636719 67.4375 119.679688 67.582031 119.742188 C 67.695312 119.792969 67.785156 119.863281 67.867188 119.933594 C 67.949219 120.015625 68.023438 120.109375 68.085938 120.210938 C 68.15625 120.335938 68.1875 120.480469 68.195312 120.652344 C 68.21875 120.703125 68.21875 120.757812 68.207031 120.808594 Z M 68.207031 120.808594 " fill-opacity="1" fill-rule="nonzero"/><path fill="#141623" d="M 87.351562 140.792969 L 87.496094 143.808594 C 87.496094 143.847656 87.496094 143.859375 87.488281 143.871094 L 87.488281 143.902344 C 87.476562 143.941406 87.476562 143.953125 87.464844 143.960938 C 87.464844 144.003906 87.457031 144.011719 87.457031 144.023438 L 87.414062 144.105469 C 87.332031 144.332031 87.179688 144.496094 86.964844 144.585938 C 86.964844 144.585938 86.964844 144.585938 86.953125 144.597656 C 86.941406 144.597656 86.921875 144.609375 86.910156 144.609375 C 86.910156 144.609375 86.902344 144.617188 86.859375 144.640625 C 86.757812 144.679688 86.65625 144.691406 86.53125 144.691406 L 83.824219 144.691406 C 83.699219 144.691406 83.585938 144.679688 83.476562 144.640625 L 83.421875 144.609375 C 83.382812 144.597656 83.371094 144.578125 83.371094 144.578125 L 83.371094 144.609375 C 83.257812 144.558594 83.167969 144.484375 83.085938 144.414062 C 83.003906 144.332031 82.929688 144.238281 82.871094 144.136719 C 82.871094 144.125 82.859375 144.125 82.859375 144.105469 C 82.847656 144.066406 82.816406 144.011719 82.796875 143.941406 C 82.765625 143.859375 82.746094 143.765625 82.746094 143.675781 L 82.683594 142.320312 L 83.269531 142.320312 L 83.3125 143.296875 L 83.3125 143.347656 C 83.3125 143.449219 83.320312 143.53125 83.332031 143.574219 C 83.414062 143.984375 83.660156 144.105469 84.191406 144.105469 L 86.222656 144.105469 C 86.664062 144.066406 86.851562 143.941406 86.902344 143.5625 L 86.890625 143.304688 L 86.789062 141.195312 C 86.757812 140.597656 86.59375 140.382812 86.101562 140.34375 L 84.265625 140.34375 L 84.265625 140.332031 L 83.484375 140.332031 C 83.394531 140.332031 83.339844 140.300781 83.269531 140.292969 C 83.230469 140.28125 83.21875 140.261719 83.21875 140.261719 C 83.207031 140.261719 83.175781 140.25 83.167969 140.230469 C 83.054688 140.1875 82.960938 140.128906 82.890625 140.046875 L 82.878906 140.035156 C 82.796875 139.953125 82.726562 139.859375 82.664062 139.757812 C 82.652344 139.726562 82.625 139.675781 82.601562 139.613281 C 82.59375 139.605469 82.59375 139.582031 82.59375 139.574219 C 82.582031 139.5625 82.582031 139.542969 82.582031 139.53125 C 82.582031 139.492188 82.570312 139.5 82.5625 139.472656 L 82.5625 139.398438 C 82.550781 139.398438 82.550781 139.398438 82.550781 139.390625 L 82.5 138.351562 L 82.5 138.292969 L 82.417969 136.445312 L 82.417969 136.394531 C 82.429688 136.25 82.449219 136.117188 82.511719 135.996094 C 82.5625 135.890625 82.625 135.800781 82.695312 135.71875 C 82.765625 135.636719 82.859375 135.574219 82.960938 135.523438 C 83.054688 135.480469 83.117188 135.472656 83.15625 135.460938 C 83.238281 135.429688 83.3125 135.421875 83.402344 135.421875 L 86.523438 135.421875 L 86.554688 136.035156 L 83.75 136.035156 C 83.660156 136.035156 83.609375 136.035156 83.515625 136.046875 C 83.105469 136.105469 82.992188 136.3125 83.003906 136.824219 L 83.003906 136.875 L 83.105469 138.988281 L 83.105469 139.070312 C 83.117188 139.214844 83.125 139.296875 83.144531 139.386719 C 83.207031 139.605469 83.351562 139.71875 83.578125 139.757812 L 83.609375 139.757812 C 83.648438 139.757812 83.648438 139.769531 83.691406 139.769531 L 83.78125 139.769531 C 83.8125 139.777344 83.855469 139.777344 83.914062 139.777344 L 86.296875 139.777344 C 86.441406 139.777344 86.59375 139.820312 86.738281 139.882812 C 86.828125 139.921875 86.933594 139.972656 87.023438 140.066406 C 87.117188 140.15625 87.1875 140.25 87.242188 140.34375 C 87.300781 140.496094 87.351562 140.640625 87.351562 140.792969 Z M 87.351562 140.792969 " fill-opacity="1" fill-rule="nonzero"/><path fill="#141623" d="M 99.542969 126.539062 L 99.582031 127.472656 C 99.613281 128.148438 99.839844 128.335938 100.488281 128.335938 L 102.375 128.335938 C 103.101562 128.335938 103.234375 128.230469 103.207031 127.535156 L 103.082031 124.941406 C 102.9375 125 102.796875 125.042969 102.628906 125.042969 L 99.921875 125.042969 C 99.757812 125.042969 99.613281 125 99.46875 124.941406 C 99.234375 124.816406 99.070312 124.664062 98.96875 124.457031 C 98.894531 124.335938 98.867188 124.179688 98.855469 124.007812 L 98.742188 121.496094 L 98.699219 120.644531 C 98.691406 120.46875 98.710938 120.316406 98.773438 120.191406 C 98.824219 120.089844 98.886719 119.996094 98.957031 119.914062 C 99.03125 119.832031 99.121094 119.769531 99.222656 119.71875 C 99.367188 119.660156 99.511719 119.617188 99.675781 119.617188 L 102.382812 119.617188 C 102.546875 119.617188 102.691406 119.660156 102.847656 119.71875 C 103.0625 119.824219 103.226562 119.988281 103.347656 120.203125 C 103.421875 120.34375 103.472656 120.488281 103.472656 120.652344 L 103.566406 122.621094 L 103.625 124.015625 L 103.800781 127.882812 C 103.8125 128.046875 103.78125 128.191406 103.71875 128.335938 C 103.667969 128.4375 103.605469 128.527344 103.535156 128.609375 C 103.460938 128.691406 103.371094 128.753906 103.265625 128.804688 C 103.125 128.867188 102.980469 128.910156 102.816406 128.910156 L 100.105469 128.910156 C 99.941406 128.910156 99.800781 128.867188 99.644531 128.804688 C 99.410156 128.683594 99.246094 128.527344 99.140625 128.324219 C 99.070312 128.199219 99.039062 128.046875 99.03125 127.871094 L 98.96875 126.527344 L 99.542969 126.527344 Z M 102.191406 124.46875 C 102.917969 124.46875 103.050781 124.367188 103.019531 123.667969 L 102.96875 122.621094 L 102.898438 121.0625 C 102.867188 120.386719 102.671875 120.203125 101.996094 120.203125 L 100.105469 120.203125 C 99.378906 120.203125 99.246094 120.304688 99.277344 121.003906 L 99.296875 121.503906 L 99.386719 123.605469 C 99.417969 124.285156 99.644531 124.46875 100.292969 124.46875 Z M 102.191406 124.46875 " fill-opacity="1" fill-rule="nonzero"/><path fill="#141623" d="M 87.160156 127.902344 C 87.167969 128.046875 87.128906 128.191406 87.074219 128.355469 C 87.046875 128.445312 86.972656 128.539062 86.890625 128.632812 C 86.820312 128.714844 86.726562 128.773438 86.625 128.828125 L 86.625 128.796875 C 86.625 128.796875 86.613281 128.804688 86.574219 128.828125 C 86.5625 128.828125 86.5625 128.835938 86.523438 128.835938 C 86.410156 128.878906 86.296875 128.898438 86.183594 128.898438 L 83.476562 128.898438 C 83.351562 128.898438 83.25 128.867188 83.125 128.835938 C 83.117188 128.835938 83.117188 128.828125 83.074219 128.828125 C 83.074219 128.828125 83.0625 128.816406 83.023438 128.796875 C 82.789062 128.671875 82.625 128.519531 82.519531 128.3125 C 82.449219 128.191406 82.417969 128.035156 82.40625 127.863281 L 82.347656 126.519531 L 82.285156 125.15625 C 82.273438 125.011719 82.316406 124.867188 82.367188 124.703125 C 82.398438 124.601562 82.460938 124.507812 82.542969 124.425781 C 82.550781 124.425781 82.550781 124.425781 82.550781 124.417969 L 82.519531 124.417969 C 82.4375 124.324219 82.367188 124.230469 82.304688 124.140625 C 82.234375 123.996094 82.203125 123.863281 82.191406 123.738281 L 82.191406 123.6875 L 82.046875 120.644531 C 82.039062 120.46875 82.058594 120.316406 82.121094 120.191406 C 82.171875 120.089844 82.234375 119.996094 82.304688 119.914062 C 82.398438 119.824219 82.480469 119.769531 82.570312 119.71875 C 82.613281 119.710938 82.625 119.6875 82.625 119.6875 C 82.664062 119.6875 82.664062 119.679688 82.675781 119.679688 C 82.789062 119.636719 82.898438 119.617188 83.011719 119.617188 L 85.722656 119.617188 C 85.84375 119.617188 85.949219 119.648438 86.070312 119.679688 C 86.113281 119.679688 86.113281 119.6875 86.121094 119.6875 C 86.164062 119.699219 86.171875 119.71875 86.171875 119.71875 C 86.410156 119.84375 86.574219 119.996094 86.675781 120.203125 C 86.746094 120.34375 86.800781 120.488281 86.800781 120.652344 L 86.941406 123.75 C 86.933594 123.894531 86.910156 124.027344 86.851562 124.148438 C 86.800781 124.242188 86.738281 124.335938 86.664062 124.425781 L 86.65625 124.425781 L 86.664062 124.4375 C 86.757812 124.53125 86.820312 124.621094 86.882812 124.714844 C 86.953125 124.878906 87.003906 125.023438 87.003906 125.164062 L 87.066406 126.527344 Z M 83.402344 120.203125 C 82.734375 120.203125 82.613281 120.367188 82.644531 121.003906 L 82.746094 123.289062 C 82.746094 123.339844 82.746094 123.382812 82.765625 123.390625 L 82.765625 123.433594 C 82.796875 123.875 82.953125 124.066406 83.332031 124.121094 C 83.402344 124.128906 83.464844 124.128906 83.558594 124.128906 C 83.585938 124.140625 83.609375 124.140625 83.648438 124.140625 L 85.535156 124.140625 C 85.578125 124.140625 85.621094 124.140625 85.628906 124.128906 C 85.753906 124.128906 85.84375 124.128906 85.9375 124.121094 C 86.296875 124.066406 86.378906 123.894531 86.367188 123.433594 L 86.367188 123.351562 L 86.265625 121.0625 C 86.234375 120.386719 86.039062 120.210938 85.445312 120.203125 Z M 86.472656 125.503906 L 86.472656 125.492188 C 86.441406 125.011719 86.277344 124.804688 85.90625 124.746094 L 85.671875 124.714844 L 83.597656 124.714844 L 83.3125 124.746094 C 82.929688 124.796875 82.859375 124.96875 82.878906 125.492188 L 82.878906 125.523438 L 82.972656 127.472656 L 82.972656 127.523438 C 83.011719 128.148438 83.207031 128.324219 83.804688 128.324219 L 85.804688 128.324219 C 86.265625 128.324219 86.449219 128.261719 86.53125 127.996094 C 86.542969 127.996094 86.542969 127.984375 86.542969 127.964844 L 86.542969 127.953125 C 86.5625 127.863281 86.574219 127.738281 86.5625 127.585938 L 86.5625 127.523438 Z M 86.472656 125.503906 " fill-opacity="1" fill-rule="nonzero"/><path fill="#141623" d="M 65.324219 139.410156 L 65.878906 138.464844 C 66.289062 137.789062 66.6875 137.082031 67.027344 136.546875 L 67.570312 135.65625 C 67.621094 135.574219 67.683594 135.511719 67.765625 135.460938 C 67.867188 135.421875 67.960938 135.398438 68.042969 135.398438 C 68.371094 135.398438 68.636719 135.667969 68.660156 135.984375 L 68.914062 141.5 L 69.808594 141.5 L 69.839844 142.085938 L 68.945312 142.085938 L 69.070312 144.699219 L 68.496094 144.699219 L 68.371094 142.085938 L 65.5 142.085938 C 65.242188 142.074219 65.046875 141.992188 64.871094 141.851562 C 64.761719 141.757812 64.679688 141.65625 64.617188 141.5 C 64.554688 141.398438 64.523438 141.277344 64.523438 141.132812 C 64.523438 141.039062 64.535156 140.988281 64.535156 140.894531 C 64.535156 140.886719 64.542969 140.855469 64.554688 140.8125 C 64.636719 140.597656 64.945312 140.054688 65.324219 139.410156 Z M 67.398438 137.039062 C 67.089844 137.53125 66.679688 138.15625 66.300781 138.785156 L 65.703125 139.757812 C 65.367188 140.292969 65.160156 140.703125 65.128906 140.804688 C 65.117188 140.84375 65.117188 140.894531 65.117188 140.96875 C 65.128906 141.234375 65.34375 141.460938 65.613281 141.5 L 68.332031 141.5 L 68.277344 140.464844 L 68.085938 136.28125 C 68.085938 136.1875 67.941406 136.136719 67.910156 136.230469 Z M 67.398438 137.039062 " fill-opacity="1" fill-rule="nonzero"/><path fill="#141623" d="M 103.675781 137.777344 L 103.636719 136.84375 C 103.605469 136.167969 103.398438 135.984375 102.742188 135.984375 L 100.84375 135.984375 C 100.136719 135.984375 100.003906 136.085938 100.035156 136.785156 L 100.179688 139.789062 C 100.324219 139.726562 100.464844 139.6875 100.609375 139.6875 L 103.339844 139.6875 C 103.484375 139.6875 103.636719 139.726562 103.78125 139.789062 C 104.003906 139.882812 104.179688 140.046875 104.28125 140.269531 C 104.355469 140.414062 104.40625 140.558594 104.40625 140.710938 L 104.507812 142.824219 L 104.550781 143.675781 C 104.558594 143.839844 104.527344 143.984375 104.46875 144.125 C 104.4375 144.21875 104.386719 144.3125 104.292969 144.402344 C 104.199219 144.496094 104.097656 144.566406 104.003906 144.597656 C 103.863281 144.660156 103.71875 144.699219 103.574219 144.699219 L 100.84375 144.699219 C 100.703125 144.699219 100.546875 144.660156 100.40625 144.597656 C 100.167969 144.476562 100.003906 144.320312 99.902344 144.117188 C 99.828125 143.972656 99.777344 143.828125 99.777344 143.664062 L 99.6875 141.695312 L 99.644531 140.703125 L 99.449219 136.433594 C 99.441406 136.269531 99.480469 136.128906 99.53125 135.984375 C 99.582031 135.882812 99.644531 135.789062 99.71875 135.707031 C 99.789062 135.625 99.882812 135.5625 99.984375 135.511719 C 100.128906 135.449219 100.269531 135.410156 100.414062 135.410156 L 103.144531 135.410156 C 103.289062 135.410156 103.441406 135.449219 103.585938 135.511719 C 103.820312 135.636719 103.984375 135.789062 104.085938 135.996094 C 104.160156 136.136719 104.210938 136.28125 104.210938 136.445312 L 104.273438 137.789062 L 103.675781 137.789062 Z M 101.039062 140.261719 C 100.332031 140.261719 100.199219 140.363281 100.230469 141.039062 L 100.261719 141.6875 L 100.332031 143.246094 C 100.363281 143.921875 100.570312 144.105469 101.226562 144.105469 L 103.125 144.105469 C 103.832031 144.105469 103.964844 144.003906 103.933594 143.304688 L 103.914062 142.804688 L 103.832031 141.101562 C 103.800781 140.425781 103.59375 140.25 102.9375 140.25 L 101.039062 140.25 Z M 101.039062 140.261719 " fill-opacity="1" fill-rule="nonzero"/><path fill="#141623" d="M 69.070312 159.886719 L 69.101562 160.472656 L 67.160156 160.472656 L 67.128906 159.886719 L 67.765625 159.886719 L 67.449219 152.699219 C 67.40625 151.921875 67.449219 151.746094 66.84375 151.746094 L 66.75 151.746094 L 66.71875 151.171875 L 66.914062 151.171875 C 68.011719 151.171875 67.980469 152.023438 67.980469 152.175781 L 68.339844 159.878906 L 69.070312 159.878906 Z M 69.070312 159.886719 " fill-opacity="1" fill-rule="nonzero"/><path fill="#141623" d="M 105.0625 155.121094 C 105.074219 155.261719 105.03125 155.40625 104.980469 155.570312 C 104.929688 155.671875 104.867188 155.765625 104.796875 155.847656 L 104.796875 155.859375 C 104.886719 155.949219 104.960938 156.03125 105.011719 156.132812 C 105.082031 156.277344 105.132812 156.421875 105.132812 156.585938 L 105.269531 159.425781 C 105.277344 159.589844 105.238281 159.734375 105.1875 159.878906 C 105.105469 160.074219 104.949219 160.238281 104.734375 160.359375 C 104.589844 160.421875 104.445312 160.460938 104.304688 160.460938 L 101.574219 160.460938 C 101.429688 160.460938 101.277344 160.421875 101.113281 160.359375 C 101.019531 160.308594 100.917969 160.257812 100.824219 160.164062 C 100.742188 160.082031 100.671875 159.992188 100.609375 159.886719 C 100.539062 159.765625 100.507812 159.609375 100.496094 159.4375 L 100.433594 158.207031 L 101.007812 158.207031 L 101.050781 159.097656 C 101.082031 159.785156 101.226562 159.898438 101.953125 159.898438 L 103.851562 159.898438 C 104.5 159.898438 104.691406 159.714844 104.664062 159.035156 L 104.570312 156.953125 C 104.539062 156.328125 104.40625 156.175781 103.800781 156.15625 L 101 156.164062 L 100.96875 155.582031 L 103.730469 155.570312 C 104.3125 155.558594 104.488281 155.375 104.457031 154.71875 L 104.355469 152.566406 C 104.324219 151.878906 104.171875 151.765625 103.472656 151.765625 L 101.574219 151.765625 C 100.925781 151.765625 100.722656 151.949219 100.753906 152.628906 L 100.785156 153.34375 L 100.210938 153.34375 L 100.15625 152.21875 C 100.148438 152.042969 100.167969 151.890625 100.230469 151.765625 C 100.3125 151.570312 100.464844 151.40625 100.679688 151.285156 C 100.835938 151.222656 100.980469 151.179688 101.132812 151.179688 L 103.863281 151.179688 C 104.003906 151.179688 104.160156 151.222656 104.304688 151.285156 C 104.417969 151.335938 104.507812 151.40625 104.589844 151.480469 C 104.683594 151.570312 104.753906 151.652344 104.804688 151.753906 C 104.878906 151.898438 104.929688 152.042969 104.929688 152.207031 Z M 105.0625 155.121094 " fill-opacity="1" fill-rule="nonzero"/><path fill="#141623" d="M 84.246094 158.164062 C 84.089844 158.308594 84 158.492188 84.007812 158.71875 L 84.058594 159.886719 L 88.257812 159.886719 L 88.285156 160.472656 L 83.496094 160.472656 L 83.464844 159.886719 L 83.445312 159.445312 L 83.394531 158.410156 C 83.394531 158.320312 83.402344 158.238281 83.433594 158.144531 C 83.453125 158.082031 83.496094 158.023438 83.535156 157.96875 L 83.558594 157.941406 L 83.628906 157.855469 C 83.628906 157.847656 84.519531 157.035156 85.394531 156.1875 L 87.136719 154.523438 C 87.300781 154.359375 87.394531 154.21875 87.375 153.949219 L 87.3125 152.546875 C 87.28125 151.859375 87.136719 151.746094 86.410156 151.746094 L 84.519531 151.746094 C 83.84375 151.746094 83.667969 151.929688 83.699219 152.605469 L 83.730469 153.316406 L 83.144531 153.316406 L 83.09375 152.195312 C 83.085938 152.03125 83.125 151.890625 83.175781 151.746094 C 83.257812 151.550781 83.414062 151.386719 83.628906 151.261719 C 83.773438 151.203125 83.914062 151.160156 84.082031 151.160156 L 86.789062 151.160156 C 86.953125 151.160156 87.097656 151.203125 87.25 151.261719 C 87.363281 151.316406 87.457031 151.386719 87.539062 151.457031 C 87.621094 151.539062 87.691406 151.632812 87.753906 151.734375 C 87.824219 151.878906 87.875 152.023438 87.875 152.1875 L 87.957031 154.03125 C 87.980469 154.390625 87.929688 154.574219 87.734375 154.800781 Z M 84.246094 158.164062 " fill-opacity="1" fill-rule="nonzero"/><path fill="#141623" d="M 70.863281 168.007812 L 71.203125 175.25 C 71.214844 175.394531 71.171875 175.535156 71.121094 175.699219 C 71.089844 175.792969 71.019531 175.886719 70.9375 175.976562 C 70.863281 176.058594 70.773438 176.121094 70.667969 176.171875 C 70.558594 176.234375 70.414062 176.265625 70.238281 176.265625 L 67.507812 176.265625 C 67.335938 176.265625 67.191406 176.234375 67.058594 176.171875 C 66.851562 176.050781 66.6875 175.894531 66.554688 175.691406 C 66.484375 175.558594 66.453125 175.414062 66.441406 175.238281 L 66.105469 168 C 66.09375 167.824219 66.113281 167.671875 66.175781 167.546875 C 66.226562 167.445312 66.289062 167.351562 66.359375 167.269531 C 66.433594 167.1875 66.523438 167.128906 66.628906 167.078125 C 66.78125 167.015625 66.925781 166.972656 67.078125 166.972656 L 69.808594 166.972656 C 69.953125 166.972656 70.105469 167.015625 70.25 167.078125 C 70.484375 167.199219 70.648438 167.351562 70.75 167.558594 C 70.804688 167.703125 70.855469 167.84375 70.863281 168.007812 Z M 69.789062 175.699219 C 70.496094 175.699219 70.628906 175.566406 70.597656 174.902344 L 70.300781 168.417969 C 70.269531 167.742188 70.066406 167.558594 69.40625 167.558594 L 67.507812 167.558594 C 66.78125 167.558594 66.648438 167.660156 66.679688 168.359375 L 66.976562 174.839844 C 67.007812 175.515625 67.234375 175.699219 67.878906 175.699219 Z M 69.789062 175.699219 " fill-opacity="1" fill-rule="nonzero"/><path fill="#141623" d="M 100.40625 170.511719 L 100.363281 169.710938 L 107.21875 169.710938 L 107.257812 170.511719 Z M 100.527344 173.117188 L 100.488281 172.316406 L 107.339844 172.316406 L 107.382812 173.117188 Z M 100.527344 173.117188 " fill-opacity="1" fill-rule="nonzero"/><path fill="#141623" d="M 86.921875 176.253906 L 86.304688 176.253906 L 86.277344 175.503906 L 86.890625 175.503906 Z M 86.921875 176.253906 " fill-opacity="1" fill-rule="nonzero"/><path fill="#141623" d="M 124.546875 132.097656 L 110.707031 132.097656 L 109.886719 118.878906 L 123.738281 118.878906 Z M 124.546875 132.097656 " fill-opacity="1" fill-rule="nonzero"/><path fill="#141623" d="M 125.53125 147.972656 L 111.679688 147.972656 L 110.871094 134.765625 L 124.710938 134.765625 Z M 125.53125 147.972656 " fill-opacity="1" fill-rule="nonzero"/><path fill="#141623" d="M 126.507812 163.847656 L 112.664062 163.847656 L 111.84375 150.636719 L 125.695312 150.636719 Z M 126.507812 163.847656 " fill-opacity="1" fill-rule="nonzero"/><path fill="#141623" d="M 127.480469 179.730469 L 113.640625 179.730469 L 112.828125 166.511719 L 126.671875 166.511719 Z M 127.480469 179.730469 " fill-opacity="1" fill-rule="nonzero"/><path fill="#141623" d="M 111.855469 117.546875 L 109.894531 118.878906 L 124.558594 132.097656 L 126.515625 130.765625 Z M 111.855469 117.546875 " fill-opacity="1" fill-rule="nonzero"/><path fill="#141623" d="M 112.828125 133.429688 L 110.878906 134.765625 L 125.53125 147.972656 L 127.492188 146.640625 Z M 112.828125 133.429688 " fill-opacity="1" fill-rule="nonzero"/><path fill="#141623" d="M 113.816406 149.304688 L 111.855469 150.636719 L 126.515625 163.847656 L 128.464844 162.511719 Z M 113.816406 149.304688 " fill-opacity="1" fill-rule="nonzero"/><path fill="#141623" d="M 114.789062 165.179688 L 112.828125 166.511719 L 127.492188 179.730469 L 129.453125 178.398438 Z M 114.789062 165.179688 " fill-opacity="1" fill-rule="nonzero"/><path fill="#fa6f5c" d="M 126.507812 130.765625 L 112.664062 130.765625 L 111.84375 117.546875 L 125.695312 117.546875 Z M 126.507812 130.765625 " fill-opacity="1" fill-rule="nonzero"/><path fill="#fa6f5c" d="M 127.480469 146.640625 L 113.640625 146.640625 L 112.828125 133.429688 L 126.671875 133.429688 Z M 127.480469 146.640625 " fill-opacity="1" fill-rule="nonzero"/><path fill="#fa6f5c" d="M 128.464844 162.511719 L 114.613281 162.511719 L 113.804688 149.304688 L 127.644531 149.304688 Z M 128.464844 162.511719 " fill-opacity="1" fill-rule="nonzero"/><path fill="#fa6f5c" d="M 129.441406 178.398438 L 115.601562 178.398438 L 114.777344 165.179688 L 128.628906 165.179688 Z M 129.441406 178.398438 " fill-opacity="1" fill-rule="nonzero"/><path fill="#141623" d="M 121.785156 123.515625 L 121.828125 124.375 L 117.199219 124.375 L 117.160156 123.515625 Z M 121.785156 123.515625 " fill-opacity="1" fill-rule="nonzero"/><path fill="#141623" d="M 119.191406 136.488281 L 120.175781 137.871094 C 120.433594 138.230469 120.648438 138.558594 120.875 138.917969 L 120.914062 138.917969 C 121.109375 138.527344 121.304688 138.199219 121.5 137.851562 L 122.339844 136.488281 L 123.601562 136.488281 L 121.550781 139.59375 L 123.960938 142.917969 L 122.628906 142.917969 L 121.613281 141.46875 C 121.347656 141.101562 121.109375 140.742188 120.875 140.351562 L 120.84375 140.351562 C 120.648438 140.742188 120.441406 141.082031 120.21875 141.46875 L 119.355469 142.917969 L 118.0625 142.917969 L 120.195312 139.636719 L 117.867188 136.488281 Z M 119.191406 136.488281 " fill-opacity="1" fill-rule="nonzero"/><path fill="#141623" d="M 124.148438 155.476562 L 124.1875 156.339844 L 119.160156 156.339844 L 119.121094 155.476562 Z M 124.148438 155.476562 " fill-opacity="1" fill-rule="nonzero"/><path fill="#141623" d="M 122.578125 168.253906 L 122.71875 171.375 L 125.726562 171.375 L 125.769531 172.171875 L 122.761719 172.171875 L 122.90625 175.320312 L 122.054688 175.320312 L 121.910156 172.171875 L 118.902344 172.171875 L 118.863281 171.375 L 121.867188 171.375 L 121.726562 168.253906 Z M 122.578125 168.253906 " fill-opacity="1" fill-rule="nonzero"/><path fill="#141623" d="M 119.488281 122.4375 L 118.871094 122.4375 L 118.84375 121.6875 L 119.457031 121.6875 Z M 119.488281 122.4375 " fill-opacity="1" fill-rule="nonzero"/><path fill="#141623" d="M 119.816406 125.925781 L 119.203125 125.925781 L 119.171875 125.175781 L 119.785156 125.175781 Z M 119.816406 125.925781 " fill-opacity="1" fill-rule="nonzero"/><path fill="#141623" d="M 69.417969 116.078125 L 55.578125 116.078125 L 54.757812 102.871094 L 68.609375 102.871094 Z M 69.417969 116.078125 " fill-opacity="1" fill-rule="nonzero"/><path fill="#141623" d="M 87.179688 116.078125 L 73.335938 116.078125 L 72.515625 102.871094 L 86.367188 102.871094 Z M 87.179688 116.078125 " fill-opacity="1" fill-rule="nonzero"/><path fill="#141623" d="M 104.9375 116.078125 L 91.097656 116.078125 L 90.277344 102.871094 L 104.128906 102.871094 Z M 104.9375 116.078125 " fill-opacity="1" fill-rule="nonzero"/><path fill="#141623" d="M 56.714844 101.539062 L 54.757812 102.871094 L 69.417969 116.078125 L 71.378906 114.746094 Z M 56.714844 101.539062 " fill-opacity="1" fill-rule="nonzero"/><path fill="#141623" d="M 74.488281 101.539062 L 72.527344 102.871094 L 87.179688 116.078125 L 89.136719 114.746094 Z M 74.488281 101.539062 " fill-opacity="1" fill-rule="nonzero"/><path fill="#141623" d="M 92.246094 101.539062 L 90.289062 102.871094 L 104.949219 116.078125 L 106.910156 114.746094 Z M 92.246094 101.539062 " fill-opacity="1" fill-rule="nonzero"/><path fill="#fa6f5c" d="M 71.378906 114.746094 L 57.535156 114.746094 L 56.714844 101.539062 L 70.558594 101.539062 Z M 71.378906 114.746094 " fill-opacity="1" fill-rule="nonzero"/><path fill="#141623" d="M 62.265625 110.59375 L 59.949219 108.65625 C 59.621094 108.378906 59.609375 107.886719 59.917969 107.597656 L 61.929688 105.722656 C 62.0625 105.597656 62.234375 105.527344 62.410156 105.527344 L 67.171875 105.527344 C 67.539062 105.527344 67.859375 105.816406 67.878906 106.195312 L 68.113281 110.007812 C 68.136719 110.417969 67.816406 110.757812 67.40625 110.757812 L 62.71875 110.757812 C 62.554688 110.757812 62.390625 110.707031 62.265625 110.59375 Z M 62.265625 110.59375 " fill-opacity="1" fill-rule="nonzero"/><path fill="#fa6f5c" d="M 89.136719 114.746094 L 75.296875 114.746094 L 74.476562 101.539062 L 88.328125 101.539062 Z M 89.136719 114.746094 " fill-opacity="1" fill-rule="nonzero"/><path fill="#fa6f5c" d="M 106.898438 114.746094 L 93.058594 114.746094 L 92.238281 101.539062 L 106.089844 101.539062 Z M 106.898438 114.746094 " fill-opacity="1" fill-rule="nonzero"/><path fill="#141623" d="M 101.613281 105.773438 L 101.585938 105.066406 C 101.554688 104.378906 101.347656 104.203125 100.691406 104.203125 L 98.792969 104.203125 C 98.066406 104.203125 97.953125 104.308594 97.984375 105.003906 L 98.28125 111.484375 C 98.3125 112.164062 98.515625 112.335938 99.171875 112.335938 L 101.070312 112.335938 C 101.800781 112.335938 101.914062 112.234375 101.882812 111.558594 L 101.839844 110.625 L 102.425781 110.625 L 102.488281 111.894531 C 102.496094 112.070312 102.476562 112.214844 102.414062 112.335938 C 102.363281 112.4375 102.300781 112.53125 102.230469 112.613281 C 102.136719 112.707031 102.054688 112.777344 101.945312 112.808594 C 101.789062 112.871094 101.644531 112.910156 101.511719 112.910156 L 98.785156 112.910156 C 98.648438 112.910156 98.507812 112.871094 98.34375 112.808594 C 98.136719 112.714844 97.960938 112.550781 97.828125 112.328125 C 97.757812 112.191406 97.726562 112.050781 97.714844 111.886719 L 97.378906 104.644531 C 97.367188 104.472656 97.410156 104.339844 97.449219 104.195312 C 97.5 104.09375 97.5625 104 97.632812 103.917969 C 97.726562 103.824219 97.808594 103.753906 97.921875 103.722656 C 98.074219 103.660156 98.21875 103.621094 98.351562 103.621094 L 101.082031 103.621094 C 101.214844 103.621094 101.359375 103.660156 101.523438 103.722656 C 101.726562 103.816406 101.902344 103.980469 102.035156 104.203125 C 102.109375 104.328125 102.136719 104.472656 102.148438 104.65625 L 102.199219 105.773438 Z M 101.613281 105.773438 " fill-opacity="1" fill-rule="nonzero"/><path fill="#141623" d="M 81.042969 105.773438 L 81.011719 105.066406 C 80.980469 104.378906 80.777344 104.203125 80.121094 104.203125 L 78.222656 104.203125 C 77.492188 104.203125 77.378906 104.308594 77.410156 105.003906 L 77.707031 111.484375 C 77.738281 112.164062 77.945312 112.335938 78.601562 112.335938 L 80.5 112.335938 C 81.226562 112.335938 81.339844 112.234375 81.308594 111.558594 L 81.269531 110.625 L 81.855469 110.625 L 81.914062 111.894531 C 81.925781 112.070312 81.90625 112.214844 81.84375 112.335938 C 81.792969 112.4375 81.730469 112.53125 81.660156 112.613281 C 81.566406 112.707031 81.484375 112.777344 81.371094 112.808594 C 81.21875 112.871094 81.074219 112.910156 80.941406 112.910156 L 78.210938 112.910156 C 78.078125 112.910156 77.933594 112.871094 77.769531 112.808594 C 77.566406 112.714844 77.390625 112.550781 77.257812 112.328125 C 77.183594 112.191406 77.15625 112.050781 77.144531 111.886719 L 76.804688 104.644531 C 76.796875 104.472656 76.835938 104.339844 76.878906 104.195312 C 76.929688 104.09375 76.988281 104 77.0625 103.917969 C 77.15625 103.824219 77.238281 103.753906 77.347656 103.722656 C 77.503906 103.660156 77.648438 103.621094 77.78125 103.621094 L 80.507812 103.621094 C 80.644531 103.621094 80.785156 103.660156 80.949219 103.722656 C 81.15625 103.816406 81.332031 103.980469 81.464844 104.203125 C 81.535156 104.328125 81.566406 104.472656 81.578125 104.65625 L 81.628906 105.773438 Z M 81.042969 105.773438 " fill-opacity="1" fill-rule="nonzero"/><path fill="#141623" d="M 83.402344 105.558594 L 83.535156 108.398438 L 87.074219 108.398438 L 87.105469 108.984375 L 83.566406 108.984375 L 83.660156 110.953125 L 83.679688 111.453125 C 83.710938 112.183594 83.824219 112.316406 84.582031 112.316406 L 87.917969 112.316406 L 87.949219 112.902344 L 84.203125 112.902344 C 84.058594 112.902344 83.90625 112.859375 83.742188 112.796875 C 83.515625 112.707031 83.339844 112.542969 83.238281 112.316406 C 83.167969 112.152344 83.117188 112.007812 83.117188 111.863281 L 82.980469 108.984375 L 82.960938 108.480469 L 82.789062 104.644531 C 82.777344 104.503906 82.816406 104.359375 82.871094 104.195312 C 82.953125 103.96875 83.105469 103.804688 83.320312 103.710938 C 83.476562 103.652344 83.617188 103.609375 83.773438 103.609375 L 87.515625 103.609375 L 87.546875 104.195312 L 84.214844 104.195312 C 83.453125 104.195312 83.351562 104.328125 83.394531 105.054688 Z M 83.402344 105.558594 " fill-opacity="1" fill-rule="nonzero"/><path fill="#141623" d="M 123.4375 116.078125 L 109.597656 116.078125 L 108.785156 102.871094 L 122.628906 102.871094 Z M 123.4375 116.078125 " fill-opacity="1" fill-rule="nonzero"/><path fill="#141623" d="M 110.746094 101.539062 L 108.785156 102.871094 L 123.449219 116.078125 L 125.410156 114.746094 Z M 110.746094 101.539062 " fill-opacity="1" fill-rule="nonzero"/><path fill="#fa6f5c" d="M 125.398438 114.746094 L 111.558594 114.746094 L 110.746094 101.539062 L 124.589844 101.539062 Z M 125.398438 114.746094 " fill-opacity="1" fill-rule="nonzero"/><path fill="#141623" d="M 120.679688 107.507812 L 120.71875 108.367188 L 116.09375 108.367188 L 116.050781 107.507812 Z M 120.679688 107.507812 " fill-opacity="1" fill-rule="nonzero"/><path fill="#141623" d="M 118.378906 106.429688 L 117.765625 106.429688 L 117.734375 105.679688 L 118.351562 105.679688 Z M 118.378906 106.429688 " fill-opacity="1" fill-rule="nonzero"/><path fill="#141623" d="M 118.707031 109.917969 L 118.09375 109.917969 L 118.0625 109.167969 L 118.679688 109.167969 Z M 118.707031 109.917969 " fill-opacity="1" fill-rule="nonzero"/><path fill="#fa6f5c" d="M 66.648438 106.511719 L 65.804688 106.480469 L 64.863281 107.578125 L 63.929688 106.480469 L 63.085938 106.511719 L 64.429688 108.082031 L 63.085938 109.660156 L 63.929688 109.691406 L 64.863281 108.582031 L 65.804688 109.691406 L 66.648438 109.660156 L 65.292969 108.082031 Z M 66.648438 106.511719 " fill-opacity="1" fill-rule="nonzero"/><path fill="#fb8875" d="M 141.363281 120.417969 L 141.929688 138.785156 C 142.0625 143 142.398438 147.191406 142.953125 151.375 L 146.351562 177.105469 L 153.203125 177.105469 C 153.203125 177.105469 156.375 153.632812 155.101562 148.761719 C 153.828125 143.890625 153.214844 141.859375 153.214844 141.859375 L 155.542969 113.074219 Z M 141.363281 120.417969 " fill-opacity="1" fill-rule="nonzero"/><path fill="#fb8875" d="M 150.351562 117.042969 L 152.867188 138.34375 C 153.089844 140.957031 154.015625 143.460938 155.542969 145.601562 L 174.414062 169.566406 L 179.851562 165.363281 C 179.851562 165.363281 174.414062 146.691406 170.996094 142.976562 C 168.429688 140.1875 166.195312 138.320312 164.953125 137.367188 C 164.316406 136.875 163.988281 136.085938 164.082031 135.285156 L 166.800781 112.550781 Z M 150.351562 117.042969 " fill-opacity="1" fill-rule="nonzero"/><path fill="#141623" d="M 166.992188 100.75 C 166.992188 100.75 168.605469 112.746094 164.714844 130.085938 L 160.109375 131.308594 C 153.777344 132.980469 147.007812 131.984375 141.488281 128.457031 C 141.445312 128.4375 141.414062 128.40625 141.375 128.386719 L 139.679688 100.757812 C 139.679688 100.75 151.007812 95.007812 166.992188 100.75 Z M 166.992188 100.75 " fill-opacity="1" fill-rule="nonzero"/><path fill="#f1dbce" d="M 146.699219 105.3125 L 153.460938 105.3125 C 156.25 105.3125 159.03125 104.859375 161.679688 103.96875 L 167.136719 102.144531 C 167.136719 102.144531 167.023438 95.664062 164.222656 89.5 C 164.214844 89.480469 164.203125 89.457031 164.191406 89.4375 C 161.976562 84.699219 160.859375 77.789062 160.066406 68.496094 C 159.84375 65.84375 158.867188 60.917969 156.660156 59.414062 C 155.277344 58.46875 153.410156 57.769531 150.90625 57.769531 C 143.855469 57.769531 136.40625 67.074219 138.234375 74.835938 L 139.414062 80.730469 L 139.679688 100.738281 L 139.085938 105.300781 L 142.472656 105.300781 C 142.472656 105.300781 143.363281 100.738281 143.363281 100.738281 L 143.519531 100.738281 Z M 146.699219 105.3125 " fill-opacity="1" fill-rule="nonzero"/><path fill="#fb8875" d="M 146.359375 177.105469 C 146.359375 177.105469 143.910156 184.210938 141.269531 185.136719 C 138.632812 186.058594 136.101562 186.652344 136.519531 187.503906 C 136.941406 188.34375 143.570312 188.773438 146.257812 188.34375 C 148.617188 187.976562 149.613281 184.285156 153.113281 183.402344 C 154.160156 183.136719 154.898438 182.171875 154.855469 181.09375 C 154.804688 179.699219 154.476562 177.855469 153.277344 176.429688 C 153.277344 176.429688 150.175781 171.457031 146.359375 177.105469 Z M 146.359375 177.105469 " fill-opacity="1" fill-rule="nonzero"/><path fill="#fb8875" d="M 179.859375 165.363281 C 179.859375 165.363281 182.085938 165.015625 182.90625 167.046875 C 183.730469 169.074219 181.195312 174.859375 181.378906 177.105469 C 181.5625 179.351562 179.316406 182.386719 177.644531 182.898438 C 175.980469 183.402344 175.726562 180.613281 175.726562 177.824219 C 175.726562 175.035156 176.226562 175.289062 175.726562 173.003906 C 175.222656 170.71875 174.414062 169.566406 174.414062 169.566406 C 174.414062 169.566406 177.511719 162.789062 179.859375 165.363281 Z M 179.859375 165.363281 " fill-opacity="1" fill-rule="nonzero"/><path fill="#141623" d="M 143.660156 103.375 C 143.445312 102.523438 143.34375 101.660156 143.199219 100.800781 L 142.800781 98.214844 C 142.542969 96.492188 142.296875 94.761719 142.0625 93.039062 C 141.589844 89.582031 141.136719 86.117188 140.777344 82.648438 C 140.605469 80.917969 140.460938 79.171875 140.359375 77.429688 C 140.316406 76.558594 140.277344 75.6875 140.277344 74.804688 C 140.285156 73.933594 140.308594 73.039062 140.492188 72.179688 C 140.859375 70.457031 141.558594 68.824219 142.410156 67.296875 C 142.832031 66.527344 143.292969 65.789062 143.796875 65.0625 C 144.042969 64.703125 144.296875 64.34375 144.554688 63.996094 C 144.820312 63.648438 145.089844 63.308594 145.40625 63 C 144.925781 63.730469 144.378906 64.40625 143.910156 65.144531 C 143.425781 65.871094 142.972656 66.609375 142.5625 67.378906 C 141.742188 68.90625 141.054688 70.527344 140.707031 72.21875 C 140.53125 73.0625 140.511719 73.933594 140.5 74.804688 C 140.5 75.675781 140.542969 76.546875 140.582031 77.410156 C 140.6875 79.152344 140.839844 80.886719 141.003906 82.617188 C 141.34375 86.085938 141.765625 89.550781 142.226562 93.015625 L 142.945312 98.195312 L 143.3125 100.789062 C 143.4375 101.640625 143.601562 102.503906 143.660156 103.375 Z M 143.660156 103.375 " fill-opacity="1" fill-rule="nonzero"/><path fill="#fb8875" d="M 121.644531 85.296875 L 143.527344 82.402344 C 143.527344 82.402344 144.75 72.496094 147.128906 67.195312 C 149.511719 61.894531 153.429688 60.539062 156.191406 63.585938 C 158.949219 66.640625 154.683594 86.535156 148.699219 89.234375 C 141.078125 92.667969 119.980469 91.089844 119.980469 91.089844 Z M 121.644531 85.296875 " fill-opacity="1" fill-rule="nonzero"/><path fill="#f1dbce" d="M 147.121094 66.488281 C 145.476562 70.136719 144.605469 73.933594 143.828125 78.730469 C 146.328125 80.382812 149.960938 81.285156 154.898438 81.007812 C 157.503906 73.839844 159.132812 66.089844 157.144531 63.894531 C 154.382812 60.847656 149.5 61.1875 147.121094 66.488281 Z M 147.121094 66.488281 " fill-opacity="1" fill-rule="nonzero"/><path fill="#fb8875" d="M 121.929688 85.089844 C 121.519531 85.109375 121.109375 84.609375 120.84375 84.300781 C 120.125 83.460938 120 83.109375 119.128906 82.804688 C 117.960938 82.394531 114.996094 82.484375 113.445312 82.515625 C 111.886719 82.546875 108.972656 82.117188 108.621094 82.75 C 108.273438 83.386719 109.578125 83.921875 110.683594 84.023438 C 111.792969 84.117188 115.023438 84.527344 115.023438 84.527344 C 115.023438 84.527344 113.210938 85.542969 114.832031 87.234375 C 114.832031 87.234375 114.449219 88.90625 115.824219 89.242188 C 115.824219 89.242188 115.34375 90.113281 116.175781 90.597656 C 116.996094 91.078125 119.179688 91.539062 121.621094 91.367188 L 123.222656 85.203125 Z M 121.929688 85.089844 " fill-opacity="1" fill-rule="nonzero"/><path fill="#fb8875" d="M 154.703125 51.464844 L 151.171875 52.542969 L 148.535156 52.542969 C 148.441406 54.695312 147.058594 60.253906 147.058594 60.253906 L 152.402344 59.660156 C 153.335938 59.554688 154.21875 59.144531 154.90625 58.5 C 154.898438 58.488281 154.25 55.085938 154.703125 51.464844 Z M 154.703125 51.464844 " fill-opacity="1" fill-rule="nonzero"/><path fill="#141623" d="M 148.175781 55.085938 L 153.757812 53.042969 C 153.757812 53.042969 152.867188 56.367188 147.703125 57.390625 Z M 148.175781 55.085938 " fill-opacity="0.2" fill-rule="nonzero"/><path fill="#fb8875" d="M 155.625 40.082031 C 154.128906 38.339844 152.457031 37.691406 150.84375 37.773438 C 149.253906 37.691406 147.417969 38.339844 145.46875 40.082031 C 145.46875 40.082031 143.488281 43.25 143.496094 46.171875 C 143.507812 48.953125 141.507812 54.652344 148.175781 55.085938 C 155.378906 55.535156 155.277344 48.960938 156.003906 46.171875 C 156.773438 43.25 155.625 40.082031 155.625 40.082031 Z M 155.625 40.082031 " fill-opacity="1" fill-rule="nonzero"/><path fill="#f1dbce" d="M 147.4375 60.242188 C 147.4375 60.242188 148.863281 58.292969 149.386719 58.121094 C 154.414062 56.375 154.558594 54.980469 154.546875 54.921875 C 154.539062 54.859375 154.917969 54.777344 155.214844 55.199219 C 155.511719 55.609375 155.707031 58.261719 155.707031 58.261719 L 155.164062 58.683594 C 155.164062 58.683594 153.472656 60.519531 151.675781 60.714844 C 149.890625 60.898438 147.4375 60.242188 147.4375 60.242188 Z M 147.4375 60.242188 " fill-opacity="1" fill-rule="nonzero"/><path fill="#fb8875" d="M 109.269531 69.800781 C 109.269531 69.800781 106.386719 67.65625 104.570312 67.730469 C 102.753906 67.8125 102.28125 68.949219 99.410156 69.152344 C 96.535156 69.371094 97.078125 70.382812 98.988281 70.710938 C 100.886719 71.050781 104.355469 70.445312 104.355469 70.445312 L 109.269531 70.445312 Z M 109.269531 69.800781 " fill-opacity="1" fill-rule="nonzero"/><path fill="#141623" d="M 175.734375 177.824219 C 175.734375 177.824219 177.253906 175.988281 180.558594 177.445312 C 180.558594 177.445312 182.332031 170.757812 182.394531 169.566406 C 182.394531 169.558594 182.394531 169.546875 182.394531 169.539062 C 182.476562 167.9375 181.644531 166.421875 180.261719 165.609375 L 179.859375 165.375 C 179.859375 165.375 181.574219 164.945312 182.539062 165.742188 C 184.015625 166.972656 183.675781 168.554688 183.675781 168.554688 C 183.675781 168.554688 182.136719 172.820312 182.136719 175.230469 C 182.136719 177.515625 183.800781 181.933594 177.890625 185.933594 C 177.574219 186.148438 177.039062 186.324219 176.617188 186.261719 C 174.421875 185.933594 175.039062 181.824219 175.734375 177.824219 Z M 175.734375 177.824219 " fill-opacity="1" fill-rule="nonzero"/><path fill="#141623" d="M 183.675781 168.542969 C 183.675781 168.542969 183.574219 172.871094 183.914062 174.304688 C 183.914062 174.304688 183.914062 174.808594 183.214844 174.542969 C 183.214844 174.542969 183 171.476562 182.539062 170.707031 Z M 183.675781 168.542969 " fill-opacity="1" fill-rule="nonzero"/><g clip-path="url(#id3)"><path fill="#141623" d="M 154.167969 177.855469 C 154.167969 177.855469 152.835938 179.382812 151.878906 181.453125 C 150.925781 183.523438 148.195312 186.121094 146.617188 186.632812 C 145.027344 187.132812 144.71875 187.074219 144.71875 187.074219 C 144.71875 187.074219 142.78125 184.601562 141.375 184.480469 C 139.957031 184.355469 131.289062 187.8125 133.875 188.507812 C 136.460938 189.207031 144.78125 189.105469 146.75 189.105469 C 148.71875 189.105469 148.996094 189.105469 148.996094 189.105469 C 148.996094 189.105469 150.445312 186.222656 151.53125 185.074219 C 152.414062 184.152344 153 183.875 153 183.875 L 152.773438 189.105469 L 153.972656 189.105469 C 153.972656 189.105469 154.691406 184.960938 155.175781 182.949219 C 155.945312 179.730469 154.167969 177.855469 154.167969 177.855469 Z M 154.167969 177.855469 " fill-opacity="1" fill-rule="nonzero"/></g><path fill="#fb8875" d="M 154.898438 46.871094 C 154.898438 46.871094 155.378906 45.085938 156.589844 45.28125 C 157.800781 45.476562 157.84375 47.117188 157.410156 48.132812 C 156.980469 49.148438 156.199219 49.628906 154.898438 49.433594 Z M 154.898438 46.871094 " fill-opacity="1" fill-rule="nonzero"/><path fill="#141623" d="M 147.316406 36.535156 C 144.441406 36.8125 143.621094 40.75 146.226562 42 C 146.371094 42.070312 146.523438 42.132812 146.679688 42.175781 C 149.171875 42.890625 152.8125 40.902344 152.8125 40.902344 C 152.8125 40.902344 152.457031 44.121094 154.988281 45.046875 L 154.34375 47.363281 C 154.34375 47.363281 155.820312 46.347656 156.355469 44.941406 C 156.96875 43.324219 157.800781 38.246094 153.511719 36.921875 C 151.582031 36.339844 149.273438 36.347656 147.316406 36.535156 Z M 147.316406 36.535156 " fill-opacity="1" fill-rule="nonzero"/><path fill="#141623" d="M 153.378906 141.058594 C 153.277344 140.867188 153.214844 140.660156 153.152344 140.457031 L 153.019531 139.820312 C 152.925781 139.398438 152.867188 138.96875 152.785156 138.546875 C 152.640625 137.695312 152.515625 136.84375 152.402344 135.996094 C 152.167969 134.292969 151.941406 132.589844 151.738281 130.878906 C 151.542969 129.164062 151.355469 127.460938 151.183594 125.75 L 150.9375 123.1875 L 150.824219 121.90625 C 150.792969 121.472656 150.710938 121.054688 150.761719 120.613281 C 150.894531 121.03125 150.894531 121.464844 150.957031 121.882812 L 151.101562 123.164062 L 151.386719 125.730469 L 151.972656 130.855469 C 152.15625 132.570312 152.351562 134.273438 152.578125 135.972656 C 152.792969 137.675781 153.03125 139.378906 153.378906 141.058594 Z M 153.378906 141.058594 " fill-opacity="1" fill-rule="nonzero"/><path fill="#141623" d="M 114.902344 84.609375 C 114.902344 84.503906 114.972656 84.503906 115.015625 84.453125 C 115.054688 84.414062 115.109375 84.382812 115.160156 84.351562 C 115.25 84.289062 115.355469 84.230469 115.457031 84.167969 C 115.652344 84.042969 115.855469 83.929688 116.070312 83.839844 C 116.289062 83.746094 116.535156 83.695312 116.769531 83.683594 C 116.894531 83.675781 117.003906 83.675781 117.128906 83.695312 C 117.191406 83.707031 117.25 83.714844 117.304688 83.738281 C 117.355469 83.765625 117.4375 83.746094 117.457031 83.847656 C 117.375 83.921875 117.332031 83.871094 117.28125 83.878906 C 117.230469 83.878906 117.167969 83.878906 117.117188 83.878906 C 117.003906 83.878906 116.902344 83.890625 116.789062 83.902344 C 116.5625 83.929688 116.359375 83.992188 116.152344 84.066406 C 115.949219 84.136719 115.734375 84.230469 115.527344 84.332031 L 115.230469 84.496094 C 115.179688 84.527344 115.128906 84.546875 115.078125 84.578125 C 115.023438 84.597656 114.996094 84.648438 114.902344 84.609375 Z M 114.902344 84.609375 " fill-opacity="1" fill-rule="nonzero"/><path fill="#141623" d="M 114.839844 87.234375 C 114.800781 87.121094 114.882812 87.089844 114.914062 87.039062 C 114.953125 86.988281 114.996094 86.9375 115.046875 86.894531 C 115.136719 86.800781 115.230469 86.710938 115.332031 86.617188 C 115.519531 86.433594 115.710938 86.257812 115.929688 86.09375 C 116.042969 86.023438 116.152344 85.941406 116.289062 85.890625 C 116.410156 85.839844 116.542969 85.796875 116.667969 85.757812 C 116.800781 85.714844 116.921875 85.683594 117.058594 85.664062 C 117.117188 85.652344 117.191406 85.644531 117.25 85.632812 C 117.324219 85.632812 117.375 85.59375 117.457031 85.675781 C 117.40625 85.777344 117.332031 85.746094 117.28125 85.777344 L 117.097656 85.839844 C 116.976562 85.878906 116.851562 85.910156 116.730469 85.960938 C 116.605469 86.003906 116.492188 86.054688 116.378906 86.105469 C 116.277344 86.15625 116.164062 86.21875 116.0625 86.289062 C 115.847656 86.433594 115.640625 86.585938 115.445312 86.75 L 115.160156 87.007812 L 115.015625 87.140625 C 114.953125 87.160156 114.933594 87.222656 114.839844 87.234375 Z M 114.839844 87.234375 " fill-opacity="1" fill-rule="nonzero"/><path fill="#141623" d="M 115.835938 89.242188 C 115.804688 89.152344 115.855469 89.140625 115.886719 89.089844 C 115.917969 89.046875 115.949219 89.015625 115.988281 88.988281 C 116.0625 88.914062 116.132812 88.863281 116.214844 88.800781 C 116.371094 88.679688 116.542969 88.585938 116.730469 88.515625 C 116.914062 88.453125 117.117188 88.421875 117.3125 88.433594 C 117.417969 88.433594 117.507812 88.441406 117.601562 88.464844 C 117.652344 88.464844 117.691406 88.484375 117.746094 88.503906 C 117.785156 88.535156 117.847656 88.503906 117.867188 88.597656 C 117.796875 88.679688 117.765625 88.628906 117.714844 88.636719 C 117.671875 88.636719 117.621094 88.628906 117.582031 88.628906 C 117.488281 88.628906 117.40625 88.617188 117.3125 88.628906 C 117.140625 88.636719 116.964844 88.679688 116.800781 88.730469 C 116.636719 88.769531 116.460938 88.84375 116.308594 88.933594 C 116.234375 88.988281 116.164062 89.039062 116.09375 89.089844 L 115.988281 89.171875 C 115.929688 89.203125 115.929688 89.253906 115.835938 89.242188 Z M 115.835938 89.242188 " fill-opacity="1" fill-rule="nonzero"/><path fill="#141623" d="M 155.175781 142.660156 C 155.277344 142.640625 155.316406 142.699219 155.378906 142.730469 L 155.554688 142.84375 C 155.667969 142.917969 155.789062 143 155.902344 143.070312 C 156.148438 143.203125 156.394531 143.335938 156.640625 143.449219 C 156.886719 143.574219 157.132812 143.695312 157.390625 143.808594 L 157.769531 143.984375 L 157.964844 144.074219 C 158.027344 144.117188 158.097656 144.105469 158.140625 144.207031 C 158.046875 144.269531 157.984375 144.207031 157.914062 144.207031 C 157.84375 144.1875 157.78125 144.167969 157.707031 144.148438 C 157.574219 144.105469 157.441406 144.054688 157.308594 144.003906 C 157.042969 143.902344 156.785156 143.789062 156.527344 143.65625 C 156.28125 143.519531 156.035156 143.367188 155.808594 143.203125 C 155.6875 143.121094 155.574219 143.050781 155.460938 142.957031 C 155.398438 142.917969 155.347656 142.875 155.296875 142.824219 C 155.257812 142.78125 155.175781 142.761719 155.175781 142.660156 Z M 155.175781 142.660156 " fill-opacity="1" fill-rule="nonzero"/><path fill="#141623" d="M 142.757812 142.753906 C 142.863281 142.792969 142.851562 142.863281 142.890625 142.925781 L 142.972656 143.121094 C 143.027344 143.246094 143.085938 143.378906 143.148438 143.5 C 143.273438 143.746094 143.414062 143.992188 143.558594 144.230469 C 143.703125 144.464844 143.835938 144.710938 143.992188 144.9375 L 144.214844 145.285156 L 144.328125 145.460938 C 144.359375 145.519531 144.429688 145.5625 144.402344 145.664062 C 144.289062 145.664062 144.277344 145.582031 144.214844 145.542969 C 144.164062 145.488281 144.125 145.4375 144.074219 145.378906 C 143.980469 145.265625 143.898438 145.152344 143.816406 145.039062 C 143.652344 144.8125 143.488281 144.578125 143.355469 144.332031 C 143.222656 144.085938 143.097656 143.828125 142.996094 143.5625 C 142.933594 143.429688 142.882812 143.304688 142.839844 143.171875 C 142.820312 143.109375 142.789062 143.039062 142.78125 142.96875 C 142.757812 142.894531 142.707031 142.84375 142.757812 142.753906 Z M 142.757812 142.753906 " fill-opacity="1" fill-rule="nonzero"/><path fill="#141623" d="M 151.582031 62.242188 C 151.222656 62.417969 150.855469 62.539062 150.503906 62.734375 C 150.15625 62.917969 149.828125 63.132812 149.519531 63.371094 C 148.894531 63.851562 148.359375 64.425781 147.921875 65.082031 C 147.46875 65.730469 147.152344 66.457031 146.902344 67.195312 L 146.730469 67.757812 L 146.585938 68.332031 L 146.300781 69.492188 C 145.917969 71.03125 145.558594 72.578125 145.199219 74.117188 L 144.667969 76.433594 L 144.402344 77.59375 C 144.296875 77.972656 144.257812 78.375 144.082031 78.742188 C 144.074219 78.332031 144.195312 77.953125 144.265625 77.5625 L 144.503906 76.394531 C 144.65625 75.613281 144.832031 74.84375 144.996094 74.066406 C 145.335938 72.519531 145.695312 70.96875 146.0625 69.429688 L 146.359375 68.28125 L 146.515625 67.707031 L 146.699219 67.132812 C 146.964844 66.375 147.292969 65.648438 147.765625 64.992188 C 148.21875 64.335938 148.773438 63.738281 149.417969 63.257812 C 149.734375 63.023438 150.085938 62.804688 150.445312 62.632812 C 150.804688 62.4375 151.171875 62.253906 151.582031 62.242188 Z M 151.582031 62.242188 " fill-opacity="1" fill-rule="nonzero"/><path fill="#141623" d="M 154.898438 81.019531 C 154.875 80.792969 154.957031 80.597656 155.011719 80.394531 L 155.175781 79.789062 L 155.511719 78.578125 L 156.167969 76.148438 L 156.878906 73.726562 C 157 73.328125 157.113281 72.917969 157.238281 72.519531 L 157.421875 71.914062 C 157.492188 71.71875 157.511719 71.503906 157.65625 71.328125 C 157.6875 71.554688 157.59375 71.75 157.554688 71.953125 L 157.402344 72.558594 C 157.296875 72.96875 157.183594 73.367188 157.074219 73.777344 L 156.394531 76.210938 L 155.675781 78.621094 L 155.316406 79.828125 L 155.132812 80.433594 C 155.0625 80.628906 155.03125 80.835938 154.898438 81.019531 Z M 154.898438 81.019531 " fill-opacity="1" fill-rule="nonzero"/><path fill="#141623" d="M 157.945312 74.84375 C 157.996094 74.949219 157.933594 75.019531 157.925781 75.101562 C 157.902344 75.183594 157.871094 75.265625 157.84375 75.335938 C 157.78125 75.492188 157.71875 75.644531 157.648438 75.808594 C 157.523438 76.117188 157.371094 76.425781 157.207031 76.722656 C 157.042969 77.019531 156.835938 77.296875 156.601562 77.554688 C 156.488281 77.6875 156.355469 77.800781 156.21875 77.902344 C 156.066406 77.984375 155.933594 78.128906 155.726562 78.085938 C 155.769531 77.964844 155.851562 77.964844 155.921875 77.921875 L 156.109375 77.769531 C 156.21875 77.65625 156.34375 77.554688 156.445312 77.417969 C 156.652344 77.171875 156.835938 76.894531 157 76.609375 C 157.175781 76.332031 157.339844 76.035156 157.484375 75.746094 C 157.554688 75.59375 157.625 75.449219 157.6875 75.296875 C 157.71875 75.226562 157.75 75.144531 157.789062 75.070312 C 157.832031 74.988281 157.832031 74.898438 157.945312 74.84375 Z M 157.945312 74.84375 " fill-opacity="1" fill-rule="nonzero"/><path fill="#141623" d="M 140.777344 63.953125 C 140.726562 64.199219 140.582031 64.394531 140.480469 64.609375 L 140.152344 65.246094 C 139.9375 65.679688 139.730469 66.097656 139.527344 66.527344 C 139.136719 67.402344 138.777344 68.28125 138.523438 69.195312 C 138.386719 69.644531 138.273438 70.109375 138.203125 70.570312 C 138.132812 71.03125 138.152344 71.503906 138.152344 71.984375 C 138.164062 72.457031 138.183594 72.9375 138.203125 73.410156 L 138.234375 74.128906 C 138.234375 74.363281 138.296875 74.597656 138.222656 74.84375 C 138.109375 74.621094 138.132812 74.375 138.101562 74.136719 L 138.039062 73.421875 C 138 72.949219 137.96875 72.464844 137.957031 71.984375 C 137.945312 71.503906 137.925781 71.019531 138 70.539062 C 138.058594 70.054688 138.171875 69.585938 138.316406 69.125 C 138.605469 68.199219 138.984375 67.320312 139.394531 66.457031 C 139.597656 66.027344 139.8125 65.597656 140.039062 65.175781 L 140.390625 64.550781 C 140.492188 64.34375 140.582031 64.117188 140.777344 63.953125 Z M 140.777344 63.953125 " fill-opacity="1" fill-rule="nonzero"/><path fill="#141623" d="M 138.828125 65.800781 C 138.859375 65.871094 138.851562 65.925781 138.839844 65.984375 L 138.808594 66.160156 L 138.746094 66.5 C 138.707031 66.722656 138.675781 66.949219 138.65625 67.175781 C 138.625 67.625 138.632812 68.085938 138.726562 68.519531 C 138.726562 68.539062 138.726562 68.558594 138.726562 68.578125 C 138.625 68.886719 138.523438 69.183594 138.417969 69.492188 C 138.378906 69.644531 138.328125 69.800781 138.285156 69.953125 L 138.222656 70.191406 C 138.203125 70.273438 138.203125 70.355469 138.109375 70.414062 C 138.050781 70.324219 138.082031 70.242188 138.089844 70.167969 L 138.121094 69.921875 C 138.152344 69.757812 138.183594 69.605469 138.222656 69.441406 C 138.304688 69.125 138.398438 68.816406 138.492188 68.507812 L 138.492188 68.570312 C 138.378906 68.097656 138.398438 67.617188 138.460938 67.15625 C 138.492188 66.917969 138.53125 66.691406 138.574219 66.46875 C 138.59375 66.355469 138.625 66.242188 138.65625 66.128906 L 138.707031 65.964844 C 138.738281 65.894531 138.757812 65.84375 138.828125 65.800781 Z M 138.828125 65.800781 " fill-opacity="1" fill-rule="nonzero"/><path fill="#141623" d="M 149.46875 59.1875 C 149.53125 59.277344 149.5625 59.382812 149.582031 59.472656 L 149.644531 59.769531 L 149.757812 60.375 L 149.972656 61.574219 L 149.839844 61.515625 L 151.152344 60.765625 C 151.59375 60.519531 152.035156 60.285156 152.476562 60.039062 L 153.808594 59.320312 L 154.476562 58.972656 L 154.816406 58.796875 C 154.929688 58.746094 155.03125 58.671875 155.175781 58.671875 C 155.101562 58.796875 154.980469 58.847656 154.875 58.910156 L 154.546875 59.105469 L 153.890625 59.484375 L 152.578125 60.222656 C 152.136719 60.46875 151.695312 60.714844 151.253906 60.949219 L 149.921875 61.65625 C 149.878906 61.679688 149.816406 61.667969 149.796875 61.617188 C 149.796875 61.605469 149.789062 61.597656 149.789062 61.585938 L 149.59375 60.375 L 149.5 59.769531 L 149.460938 59.464844 C 149.449219 59.402344 149.4375 59.300781 149.46875 59.1875 Z M 149.46875 59.1875 " fill-opacity="1" fill-rule="nonzero"/><path fill="#141623" d="M 146.554688 57.636719 C 146.648438 57.710938 146.617188 57.78125 146.636719 57.863281 C 146.648438 57.933594 146.65625 58.015625 146.667969 58.089844 L 146.71875 58.539062 C 146.761719 58.847656 146.800781 59.144531 146.832031 59.453125 C 146.863281 59.761719 146.882812 60.058594 146.902344 60.367188 L 146.925781 60.828125 C 146.925781 60.898438 146.925781 60.980469 146.925781 61.054688 C 146.914062 61.136719 146.957031 61.207031 146.875 61.289062 C 146.769531 61.21875 146.800781 61.144531 146.78125 61.0625 C 146.769531 60.992188 146.75 60.910156 146.738281 60.835938 L 146.679688 60.386719 C 146.636719 60.078125 146.605469 59.78125 146.585938 59.472656 C 146.566406 59.167969 146.546875 58.867188 146.535156 58.5625 L 146.503906 58.097656 C 146.503906 58.027344 146.492188 57.945312 146.492188 57.875 C 146.515625 57.792969 146.484375 57.71875 146.554688 57.636719 Z M 146.554688 57.636719 " fill-opacity="1" fill-rule="nonzero"/><path fill="#141623" d="M 145.859375 58.644531 C 145.917969 58.726562 145.867188 58.777344 145.867188 58.839844 C 145.859375 58.898438 145.835938 58.960938 145.828125 59.023438 L 145.722656 59.382812 C 145.664062 59.628906 145.601562 59.863281 145.53125 60.109375 L 145.394531 59.957031 C 145.621094 59.914062 145.847656 59.894531 146.074219 59.863281 C 146.1875 59.851562 146.300781 59.832031 146.410156 59.832031 C 146.472656 59.824219 146.523438 59.824219 146.585938 59.824219 C 146.648438 59.832031 146.699219 59.792969 146.761719 59.863281 C 146.71875 59.957031 146.65625 59.933594 146.605469 59.957031 C 146.554688 59.964844 146.492188 59.988281 146.441406 59.996094 C 146.328125 60.027344 146.21875 60.046875 146.105469 60.070312 C 145.878906 60.109375 145.664062 60.160156 145.4375 60.191406 C 145.375 60.203125 145.3125 60.152344 145.304688 60.089844 C 145.304688 60.070312 145.304688 60.046875 145.304688 60.039062 C 145.386719 59.800781 145.46875 59.566406 145.550781 59.332031 L 145.671875 58.972656 C 145.695312 58.910156 145.714844 58.847656 145.734375 58.796875 C 145.777344 58.746094 145.753906 58.683594 145.859375 58.644531 Z M 145.859375 58.644531 " fill-opacity="1" fill-rule="nonzero"/><path fill="#141623" d="M 150.230469 43.445312 C 150.742188 43.691406 151.152344 43.875 151.265625 43.628906 C 151.378906 43.382812 151.058594 42.996094 150.546875 42.75 C 150.035156 42.503906 149.53125 42.492188 149.40625 42.738281 C 149.285156 42.984375 149.726562 43.199219 150.230469 43.445312 Z M 150.230469 43.445312 " fill-opacity="1" fill-rule="nonzero"/><path fill="#141623" d="M 148.085938 44.707031 L 147.285156 47.238281 L 147.078125 47.875 C 147.046875 47.988281 147.007812 48.082031 147.015625 48.164062 C 147.015625 48.253906 147.046875 48.335938 147.109375 48.410156 C 147.222656 48.542969 147.425781 48.605469 147.601562 48.542969 L 148.25 48.378906 C 148.308594 48.359375 148.382812 48.398438 148.390625 48.460938 C 148.414062 48.523438 148.371094 48.59375 148.308594 48.605469 L 147.664062 48.757812 C 147.417969 48.828125 147.121094 48.746094 146.957031 48.53125 C 146.875 48.429688 146.832031 48.285156 146.832031 48.164062 C 146.832031 48.101562 146.84375 48.03125 146.863281 47.96875 L 146.914062 47.804688 L 147.128906 47.179688 L 148.003906 44.664062 C 148.011719 44.636719 148.042969 44.625 148.0625 44.636719 C 148.074219 44.65625 148.085938 44.6875 148.085938 44.707031 Z M 148.085938 44.707031 " fill-opacity="1" fill-rule="nonzero"/><path fill="#141623" d="M 155.636719 47.035156 C 155.636719 47.035156 155.832031 46.222656 156.324219 46.308594 C 156.816406 46.398438 156.835938 47.136719 156.660156 47.597656 C 156.488281 48.058594 156.167969 48.277344 155.636719 48.195312 Z M 155.636719 47.035156 " fill-opacity="0.098" fill-rule="nonzero"/><path fill="#141623" d="M 150.804688 45.292969 C 150.804688 45.457031 150.757812 45.597656 150.660156 45.710938 C 150.566406 45.828125 150.453125 45.886719 150.320312 45.886719 C 150.1875 45.886719 150.074219 45.828125 149.980469 45.710938 C 149.886719 45.597656 149.839844 45.457031 149.839844 45.292969 C 149.839844 45.128906 149.886719 44.988281 149.980469 44.871094 C 150.074219 44.753906 150.1875 44.695312 150.320312 44.695312 C 150.453125 44.695312 150.566406 44.753906 150.660156 44.871094 C 150.757812 44.988281 150.804688 45.128906 150.804688 45.292969 Z M 150.804688 45.292969 " fill-opacity="1" fill-rule="nonzero"/><path fill="#f1dbce" d="M 150.628906 45.054688 C 150.628906 45.171875 150.582031 45.230469 150.484375 45.230469 C 150.390625 45.230469 150.339844 45.171875 150.339844 45.054688 C 150.339844 44.9375 150.390625 44.882812 150.484375 44.882812 C 150.582031 44.882812 150.628906 44.9375 150.628906 45.054688 Z M 150.628906 45.054688 " fill-opacity="1" fill-rule="nonzero"/><path fill="#141623" d="M 146.441406 43.445312 C 145.929688 43.691406 145.519531 43.875 145.40625 43.628906 C 145.292969 43.382812 145.613281 42.996094 146.125 42.75 C 146.636719 42.503906 147.140625 42.492188 147.261719 42.738281 C 147.386719 42.984375 146.957031 43.199219 146.441406 43.445312 Z M 146.441406 43.445312 " fill-opacity="1" fill-rule="nonzero"/><path fill="#141623" d="M 146.792969 45.292969 C 146.792969 45.457031 146.746094 45.597656 146.648438 45.710938 C 146.554688 45.828125 146.441406 45.886719 146.308594 45.886719 C 146.175781 45.886719 146.0625 45.828125 145.96875 45.710938 C 145.875 45.597656 145.828125 45.457031 145.828125 45.292969 C 145.828125 45.128906 145.875 44.988281 145.96875 44.871094 C 146.0625 44.753906 146.175781 44.695312 146.308594 44.695312 C 146.441406 44.695312 146.554688 44.753906 146.648438 44.871094 C 146.746094 44.988281 146.792969 45.128906 146.792969 45.292969 Z M 146.792969 45.292969 " fill-opacity="1" fill-rule="nonzero"/><path fill="#f1dbce" d="M 146.617188 45.054688 C 146.617188 45.171875 146.570312 45.230469 146.472656 45.230469 C 146.378906 45.230469 146.328125 45.171875 146.328125 45.054688 C 146.328125 44.9375 146.378906 44.882812 146.472656 44.882812 C 146.570312 44.882812 146.617188 44.9375 146.617188 45.054688 Z M 146.617188 45.054688 " fill-opacity="1" fill-rule="nonzero"/><path fill="#141623" d="M 155.460938 47.515625 C 155.421875 47.167969 155.535156 46.820312 155.726562 46.523438 C 155.839844 46.378906 155.972656 46.246094 156.167969 46.183594 C 156.355469 46.121094 156.570312 46.140625 156.714844 46.277344 C 156.734375 46.296875 156.734375 46.328125 156.714844 46.347656 C 156.691406 46.367188 156.671875 46.367188 156.652344 46.359375 C 156.519531 46.308594 156.363281 46.316406 156.242188 46.378906 C 156.117188 46.429688 156.003906 46.53125 155.921875 46.65625 C 155.738281 46.902344 155.636719 47.199219 155.554688 47.515625 C 155.542969 47.539062 155.523438 47.558594 155.503906 47.546875 C 155.480469 47.546875 155.472656 47.539062 155.460938 47.515625 Z M 155.460938 47.515625 " fill-opacity="1" fill-rule="nonzero"/><path fill="#141623" d="M 155.78125 46.65625 C 155.832031 46.523438 155.964844 46.441406 156.109375 46.429688 C 156.25 46.410156 156.394531 46.480469 156.496094 46.574219 C 156.589844 46.675781 156.652344 46.808594 156.660156 46.933594 C 156.671875 47.066406 156.652344 47.1875 156.589844 47.300781 C 156.578125 47.332031 156.539062 47.34375 156.519531 47.320312 C 156.496094 47.3125 156.488281 47.292969 156.488281 47.269531 C 156.488281 47.054688 156.457031 46.851562 156.324219 46.738281 C 156.261719 46.675781 156.191406 46.636719 156.109375 46.625 C 156.027344 46.613281 155.933594 46.636719 155.851562 46.695312 C 155.832031 46.71875 155.800781 46.707031 155.789062 46.6875 C 155.78125 46.6875 155.78125 46.675781 155.78125 46.65625 Z M 155.78125 46.65625 " fill-opacity="1" fill-rule="nonzero"/><path fill="#141623" d="M 147.222656 50.132812 L 147.746094 49.917969 L 149.210938 49.628906 L 150.496094 48.808594 C 150.699219 48.726562 150.90625 48.921875 150.835938 49.125 C 150.679688 49.546875 150.394531 50.121094 149.839844 50.460938 C 148.925781 51.023438 147.765625 50.644531 147.222656 50.398438 C 147.097656 50.355469 147.097656 50.183594 147.222656 50.132812 Z M 147.222656 50.132812 " fill-opacity="1" fill-rule="nonzero"/><path fill="#f1dbce" d="M 147.726562 49.9375 C 147.726562 49.9375 147.828125 50.234375 147.972656 50.296875 C 148.175781 50.386719 150.320312 49.699219 150.433594 49.597656 C 150.597656 49.433594 150.496094 48.828125 150.496094 48.828125 Z M 147.726562 49.9375 " fill-opacity="1" fill-rule="nonzero"/></svg>